<svg xmlns="http://www.w3.org/2000/svg" width="26.883" height="18.756" viewBox="0 0 26.883 18.756">
  <g id="Group_2204" data-name="Group 2204" transform="translate(810.388 557.697)">
    <path id="Path_1410" data-name="Path 1410" d="M-681.522-417.1h2.483v-1.513h-2.483Z" transform="translate(-117.779 -127.12)" fill="none"/>
    <path id="Path_1411" data-name="Path 1411" d="M-698.691-361.6c.085.141.025.245-.14.245h-3.681a1.192,1.192,0,0,1-.8.579.136.136,0,0,0-.034.021h-.7a.869.869,0,0,0,.322.058h5.714a.7.7,0,0,0,.745-.747q0-.461,0-.922h-1.886Z" transform="translate(-97.193 -178.529)" fill="none"/>
    <path id="Path_1412" data-name="Path 1412" d="M-648.938-424.012c-.12-.125-.242-.247-.377-.383v2.011h.41c0-.523,0-1.039,0-1.554A.12.12,0,0,0-648.938-424.012Z" transform="translate(-147.215 -121.834)" fill="none"/>
    <path id="Path_1413" data-name="Path 1413" d="M-690.552-539.331a2.8,2.8,0,0,1-.131-.83c-.016-.839-.006-1.677-.006-2.516a1.05,1.05,0,0,1,.822-1.144c0-.252,0-.508,0-.764a1.029,1.029,0,0,1,1.1-1.1c.106,0,.212,0,.318,0v-.444h-3.363a.928.928,0,0,1-.17,0,.238.238,0,0,1-.216-.246.24.24,0,0,1,.222-.257.909.909,0,0,1,.153,0h3.376c-.03-.358-.049-.7-.089-1.043a8.662,8.662,0,0,0-.721-2.775,2.948,2.948,0,0,0-.443-.7,1.138,1.138,0,0,0-1.837.087,4.634,4.634,0,0,0-.717,1.536,11.45,11.45,0,0,0-.461,3.23c0,.654,0,1.308,0,1.963,0,.29-.077.367-.361.367-.455,0-.91,0-1.365,0-.23,0-.32-.088-.321-.32,0-.535,0-1.07,0-1.6v-.226h-3.73q0,1.758,0,3.517a.4.4,0,0,0,.089.263,4.324,4.324,0,0,1,.785,1.611c.1-.1.205-.2.307-.306a.24.24,0,0,1,.184-.077c.892,0,1.784,0,2.676,0a.28.28,0,0,1,.174.072c.215.205.422.419.634.628a.229.229,0,0,1,.071.177c0,.5,0,1,0,1.507v.107h1.2a.419.419,0,0,1,.459.456q0,1.175,0,2.351h1.326q.062-1.366.123-2.732A2.064,2.064,0,0,0-690.552-539.331Z" transform="translate(-102.265 -5.584)" fill="none"/>
    <path id="Path_1414" data-name="Path 1414" d="M-679.064-426.64h-2.485v.405h2.485Z" transform="translate(-117.754 -119.782)" fill="none"/>
    <path id="Path_1415" data-name="Path 1415" d="M-681.927-397.718h-5.095q0,.307,0,.613a.45.45,0,0,1-.008.085.464.464,0,0,1,.189-.04.488.488,0,0,1,.478.482.488.488,0,0,1-.482.487.465.465,0,0,1-.189-.041.3.3,0,0,1,.013.073c.014.29.022.581.044.87h.249l.264-.44c.089-.148.205-.147.3,0l.263.438h.008l.562-.937c.1-.161.192-.322.29-.482.082-.135.2-.136.281,0l.853,1.422h2.194q0-1.161,0-2.323C-681.717-397.681-681.755-397.718-681.927-397.718Z" transform="translate(-112.74 -146.216)" fill="none"/>
    <path id="Path_1416" data-name="Path 1416" d="M-514.018-447.079h-.122q-.086,1.93-.171,3.857a26.147,26.147,0,0,0,.292-3.72C-514.019-446.988-514.019-447.033-514.018-447.079Z" transform="translate(-270.604 -101.101)" fill="none"/>
    <path id="Path_1417" data-name="Path 1417" d="M-515.97-416.7a.847.847,0,0,1,.153.648.744.744,0,0,1-.6.611l-.033.74a5.984,5.984,0,0,0,.361-.656c.044-.09.1-.162.208-.163s.165.07.21.161c.109.222.221.442.332.663l.03-.006q-.127-2.853-.254-5.709a15.734,15.734,0,0,1-.485,2.976A.8.8,0,0,0-515.97-416.7Z" transform="translate(-268.645 -125.476)" fill="none"/>
    <path id="Path_1418" data-name="Path 1418" d="M-528.687-477.3c-.007.431,0,.863,0,1.294v.132h.41c0-.561.006-1.112,0-1.663a.6.6,0,0,0-.61-.581A1.262,1.262,0,0,1-528.687-477.3Z" transform="translate(-257.279 -72.73)" fill="none"/>
    <path id="Path_1419" data-name="Path 1419" d="M-535.6-455.464a.55.55,0,0,0-.4-.51v1.165h.4c0-.2,0-.382,0-.565C-535.6-455.4-535.6-455.434-535.6-455.464Z" transform="translate(-250.779 -92.972)" fill="none"/>
    <path id="Path_1420" data-name="Path 1420" d="M-707.545-393.66c.01-.008.017-.018.026-.026a.133.133,0,0,1-.051-.052.162.162,0,0,1,.025-.177l.241-.4c0-.026-.008-.053-.014-.08-.022-.093-.041-.187-.058-.28h-.344c-.04,0-.08,0-.119,0a.756.756,0,0,1-.684-.955c.053-.183.164-.348.234-.527a.468.468,0,0,0,.039-.271c-.119-.426-.217-.855-.3-1.287h-.225c-.159,0-.2.041-.2.2q0,1.883,0,3.766a.893.893,0,0,0,.042.275h.841A.781.781,0,0,0-707.545-393.66Z" transform="translate(-92.689 -146.216)" fill="none"/>
    <path id="Path_1421" data-name="Path 1421" d="M-535.688-474.814c0-.357.006-.707,0-1.056a.514.514,0,0,0-.2-.4.543.543,0,0,0-.2.394c-.009.3,0,.6,0,.884Z" transform="translate(-250.692 -74.42)" fill="none"/>
    <path id="Path_1422" data-name="Path 1422" d="M-515.742-373.528c-.007-.017-.016-.034-.024-.051q-.008.19-.017.381A.271.271,0,0,0-515.742-373.528Z" transform="translate(-269.26 -168.278)" fill="none"/>
    <path id="Path_1423" data-name="Path 1423" d="M-594.519-447.047h-.812c0,.188,0,.367,0,.546,0,.2-.069.267-.272.267-.218,0-.437,0-.655,0-.076,0-.106.03-.145.091-.162.25-.337.492-.5.74a.378.378,0,0,0-.067.18,8.37,8.37,0,0,1-.042,1.05,2.546,2.546,0,0,1-1.846,2.128,2.575,2.575,0,0,1-2.728-.714.569.569,0,0,1-.066-.1l-.039.032-.113,2.555h6.986Q-594.67-443.661-594.519-447.047Z" transform="translate(-190.637 -101.131)" fill="none"/>
    <path id="Path_1424" data-name="Path 1424" d="M-574.33-462.332v.134h.41c0-.321,0-.64,0-.957h-.413C-574.332-462.88-574.33-462.606-574.33-462.332Z" transform="translate(-215.748 -86.409)" fill="none"/>
    <path id="Path_1425" data-name="Path 1425" d="M-583.685-475.325q0-.372,0-.745a.539.539,0,0,0-.181.384c-.008.294,0,.588,0,.877l.406.177c0-.112,0-.224,0-.336C-583.634-474.995-583.685-475.089-583.685-475.325Z" transform="translate(-207.029 -74.605)" fill="none"/>
    <path id="Path_1426" data-name="Path 1426" d="M-583.3-534.06c0,.052,0,.1,0,.156h.081a11.849,11.849,0,0,0-.247-3.261,7.218,7.218,0,0,0-1.578-2.829.323.323,0,0,0,.012.052,9.4,9.4,0,0,1,.73,3.171c.035.564.042,1.13.046,1.7l.1.012A.992.992,0,0,1-583.3-534.06Z" transform="translate(-205.959 -16.181)" fill="none"/>
    <path id="Path_1427" data-name="Path 1427" d="M-804.424-391.211c.115-.05.195-.007.315.173l.263-.118c-.047-.128-.042-.241.082-.305.146-.076.24.016.316.131l.3-.132c-.053-.136-.069-.262.073-.332.164-.082.249.038.325.161l.27-.127-.251-.567c-.13.047-.243.035-.3-.089s0-.229.131-.3l-.144-.318c-.192.054-.284.037-.334-.073-.064-.14-.008-.235.124-.3.016-.008.01-.062.017-.121l-.623.275c.032.12.024.228-.091.29-.139.075-.23-.016-.314-.111-.125.054-.239.113-.36.155s-.133.1-.136.214c-.018.554-.045,1.107-.075,1.661a3.524,3.524,0,0,1-.059.365l.39-.176C-804.566-391.063-804.538-391.161-804.424-391.211Z" transform="translate(-5.013 -150.04)" fill="none"/>
    <path id="Path_1428" data-name="Path 1428" d="M-602.861-360.829h6.986l.068-1.535h-6.986Q-602.827-361.6-602.861-360.829Z" transform="translate(-189.673 -178.528)" fill="none"/>
    <path id="Path_1429" data-name="Path 1429" d="M-679.629-370.013l-.088.146h.176Z" transform="translate(-119.429 -171.537)" fill="none"/>
    <path id="Path_1430" data-name="Path 1430" d="M-669.384-381.293l-.67,1.117h1.34Z" transform="translate(-128.26 -161.228)" fill="none"/>
    <path id="Path_1431" data-name="Path 1431" d="M-687.507-422.382h.172v-2.011l-.232.233a4.29,4.29,0,0,1,.053.6C-687.506-423.17-687.506-422.776-687.507-422.382Z" transform="translate(-112.254 -121.836)" fill="none"/>
    <path id="Path_1432" data-name="Path 1432" d="M-686.991-386.42a.21.21,0,0,0,.2-.206.211.211,0,0,0-.2-.208.211.211,0,0,0-.208.2A.21.21,0,0,0-686.991-386.42Z" transform="translate(-112.591 -156.163)" fill="none"/>
    <path id="Path_1433" data-name="Path 1433" d="M-701.1-438.563v-.1c0-.5,0-1,0-1.507a.248.248,0,0,1,.04-.143,3.692,3.692,0,0,0-.813-1.791c0,.289.008.578.014.866a16.971,16.971,0,0,0,.263,2.675h.5Z" transform="translate(-99.18 -105.647)" fill="none"/>
    <path id="Path_1434" data-name="Path 1434" d="M-675.868-361.636l-.436-.727h-1.955l-.436.727Z" transform="translate(-120.363 -178.529)" fill="none"/>
    <path id="Path_1435" data-name="Path 1435" d="M-685.032-361.628l.188,0a.088.088,0,0,0,.055-.043q.208-.344.413-.689h-.507l-.141.235A1.326,1.326,0,0,1-685.032-361.628Z" transform="translate(-114.571 -178.53)" fill="none"/>
    <path id="Path_1436" data-name="Path 1436" d="M-697.941-395.9a2.361,2.361,0,0,0-.18.366.249.249,0,0,0,.227.34,1.32,1.32,0,0,0,.136,0h.21a6.241,6.241,0,0,1-.031-.832.341.341,0,0,1,.105-.233.17.17,0,0,1,.095-.038.483.483,0,0,1-.093-.281.477.477,0,0,1,.083-.271c-.118-.007-.193-.1-.193-.26,0-.205,0-.41,0-.615h-.547c.076.376.167.749.274,1.12A.855.855,0,0,1-697.941-395.9Z" transform="translate(-102.592 -146.216)" fill="none"/>
    <path id="Path_1437" data-name="Path 1437" d="M-575.838-478.047q0,.054,0,.108a1.32,1.32,0,0,1,.132.652h.407c0-.065,0-.131,0-.2A.594.594,0,0,0-575.838-478.047Z" transform="translate(-214.371 -72.798)" fill="none"/>
    <path id="Path_1438" data-name="Path 1438" d="M-578.24-446.446a.207.207,0,0,1-.222.226c-.043,0-.085,0-.147,0a1.391,1.391,0,0,0,1.55.29.13.13,0,0,0,.05-.1c0-.188,0-.376,0-.564v-.439h-1.233C-578.24-446.83-578.237-446.638-578.24-446.446Z" transform="translate(-211.838 -101.144)" fill="none"/>
    <path id="Path_1439" data-name="Path 1439" d="M-724.366-502.8a.358.358,0,0,0-.4.263c-.112.281-.221.563-.334.844a1.336,1.336,0,0,1-.618.7c-.1.054-.208.093-.318.141,0,.209,0,.419,0,.63a.847.847,0,0,0,.366.718l1.178.865v-2.8a.842.842,0,0,1,.413-.515q0-.224,0-.448A.357.357,0,0,0-724.366-502.8Z" transform="translate(-77.095 -50.17)" fill="none"/>
    <path id="Path_1440" data-name="Path 1440" d="M-649.132-533.976c0,.009.012.017.02.029h1a14.619,14.619,0,0,1,.778-6.093,1.076,1.076,0,0,0-.082.078,7.065,7.065,0,0,0-1.659,3.6A19.354,19.354,0,0,0-649.132-533.976Z" transform="translate(-147.377 -16.138)" fill="none"/>
    <path id="Path_1441" data-name="Path 1441" d="M-790.792-501.912c-.075-.226-.171-.445-.264-.664a.337.337,0,0,0-.35-.214.346.346,0,0,0-.3.261.746.746,0,0,0-.011.164q0,1.947,0,3.9v.156c.149-.116.275-.219.406-.316q.576-.424,1.156-.843a.837.837,0,0,0,.388-.635c.016-.246,0-.495,0-.75A1.478,1.478,0,0,1-790.792-501.912Z" transform="translate(-17.061 -50.182)" fill="none"/>
    <path id="Path_1442" data-name="Path 1442" d="M-515.445-354.86h.968l-.484-.968Z" transform="translate(-269.568 -184.502)" fill="none"/>
    <path id="Path_1443" data-name="Path 1443" d="M-761.536-492.373a.353.353,0,0,0-.385.068c-.231.2-.326.2-.569,0a.37.37,0,0,0-.491,0c-.241.2-.335.2-.57,0a.358.358,0,0,0-.386-.066.339.339,0,0,0-.229.316c-.008.224,0,.449,0,.684h2.863c0-.235.008-.459,0-.683A.346.346,0,0,0-761.536-492.373Z" transform="translate(-42.243 -59.677)" fill="none"/>
    <path id="Path_1444" data-name="Path 1444" d="M-583.721-454.852s.006-.005.016-.014c0-.223.014-.454,0-.682a.523.523,0,0,0-.424-.475,7.692,7.692,0,0,0,.082.932C-583.989-454.79-584.019-454.849-583.721-454.852Z" transform="translate(-206.79 -92.928)" fill="none"/>
    <path id="Path_1445" data-name="Path 1445" d="M-591.623-429.881a1.422,1.422,0,0,0,1.05-1.455,2.646,2.646,0,0,1-1.6-.124,2.875,2.875,0,0,1-1.268-1.01c0,.4,0,.809,0,1.214A1.436,1.436,0,0,0-591.623-429.881Z" transform="translate(-198.283 -114.453)" fill="none"/>
    <path id="Path_1446" data-name="Path 1446" d="M-598.7-453.119c-.175.054-.211.164-.212.342a1.839,1.839,0,0,1-1.822,1.812,1.846,1.846,0,0,1-1.87-1.847c0-1.031,0-2.062,0-3.093v-.14a.566.566,0,0,0-.41.574c0,.911-.01,1.823,0,2.734a2.266,2.266,0,0,0,2.182,2.184,2.292,2.292,0,0,0,2.322-2.667A1.168,1.168,0,0,1-598.7-453.119Z" transform="translate(-189.532 -92.908)" fill="none"/>
    <path id="Path_1447" data-name="Path 1447" d="M-591.355-473.827a1.85,1.85,0,0,1-1.687-1.859c0-.505,0-1.01,0-1.515a1.37,1.37,0,0,1,.2-.925.6.6,0,0,0-.611.611c0,.638-.008,1.275,0,1.913a2.26,2.26,0,0,0,2.189,2.19,2.259,2.259,0,0,0,2.329-2.271c0-.6,0-1.207,0-1.81a1.06,1.06,0,0,1,.151-.562.738.738,0,0,0,.035-.076.608.608,0,0,0-.6.624c0,.6,0,1.2,0,1.8a2.053,2.053,0,0,1-.038.408A1.849,1.849,0,0,1-591.355-473.827Z" transform="translate(-198.268 -72.722)" fill="none"/>
    <path id="Path_1448" data-name="Path 1448" d="M-555.182-454.517a1.859,1.859,0,0,0,.381-1.532.554.554,0,0,0-.4.511c-.01.336,0,.674,0,1.011C-555.2-454.524-555.188-454.52-555.182-454.517Z" transform="translate(-233.229 -92.903)" fill="none"/>
    <path id="Path_1449" data-name="Path 1449" d="M-698.056-420.74a4.293,4.293,0,0,0-.055-.55.248.248,0,0,0-.039.143c0,.5,0,1,0,1.507v.1h-.5q.025.139.053.277h.547C-698.043-419.755-698.039-420.248-698.056-420.74Z" transform="translate(-102.128 -124.672)" fill="#fff"/>
    <path id="Path_1450" data-name="Path 1450" d="M-683.086-427.445h-1.2v-.107c0-.5,0-1,0-1.507a.228.228,0,0,0-.071-.177c-.212-.209-.418-.423-.634-.628a.28.28,0,0,0-.174-.072c-.892,0-1.784,0-2.676,0a.24.24,0,0,0-.184.077c-.1.1-.2.2-.307.306q.04.161.066.327l.232-.233v2.011h-.172c0,.095,0,.189,0,.284h5.095c.172,0,.209.037.209.207q0,1.161,0,2.323h.277q0-1.175,0-2.351A.419.419,0,0,0-683.086-427.445Zm-4.664-2.211h2.485v.405h-2.485Zm2.486,2.2h-2.483v-1.513h2.483Zm.288,0v-2.011c.135.136.257.258.377.383a.12.12,0,0,1,.032.074c0,.516,0,1.032,0,1.554Z" transform="translate(-111.553 -116.766)" fill="#fff"/>
    <path id="Path_1451" data-name="Path 1451" d="M-702.195-361.441a.7.7,0,0,1-.745.747h-5.714a.87.87,0,0,1-.322-.058h-.464a.993.993,0,0,0,.77.335h5.742a.969.969,0,0,0,1.01-1.007q0-.469,0-.939h-.277Q-702.195-361.9-702.195-361.441Z" transform="translate(-92.263 -178.529)" fill="#fff"/>
    <path id="Path_1452" data-name="Path 1452" d="M-711.92-396.7q0-1.883,0-3.766c0-.159.041-.2.2-.2h.225c-.017-.092-.033-.185-.049-.277h-.19a.42.42,0,0,0-.462.462q0,1.9,0,3.793a1.151,1.151,0,0,0,.031.263h.288A.891.891,0,0,1-711.92-396.7Z" transform="translate(-89.743 -143.272)" fill="#fff"/>
    <path id="Path_1453" data-name="Path 1453" d="M-692.566-358.175l-.241.4a.162.162,0,0,0-.025.177.133.133,0,0,0,.051.052A.694.694,0,0,0-692.566-358.175Z" transform="translate(-107.426 -182.357)" fill="#fff"/>
    <path id="Path_1454" data-name="Path 1454" d="M-672.819-385.583l.67,1.117h.323l-.853-1.422c-.08-.133-.2-.131-.281,0-.1.16-.193.321-.29.482l-.562.937h.323Z" transform="translate(-124.826 -156.938)" fill="#fff"/>
    <path id="Path_1455" data-name="Path 1455" d="M-683.061-374.313l.088.146h.324l-.263-.438c-.09-.15-.206-.151-.3,0l-.264.44h.323Z" transform="translate(-115.997 -167.237)" fill="#fff"/>
    <path id="Path_1456" data-name="Path 1456" d="M-685.422-362.127l.141-.235h-.188l.034.16C-685.429-362.176-685.426-362.152-685.422-362.127Z" transform="translate(-114.172 -178.53)" fill="#fff"/>
    <path id="Path_1457" data-name="Path 1457" d="M-682.746-361.636h-2.827l.436-.727h-.324q-.206.345-.413.689c-.012.019-.036.043-.055.043l-.188,0a1.079,1.079,0,0,1-.1.278h3.681c.165,0,.225-.1.14-.245l-.46-.767h-.323Z" transform="translate(-113.485 -178.529)" fill="#fff"/>
    <path id="Path_1458" data-name="Path 1458" d="M-690.292-389.842h-.022a.477.477,0,0,0-.082.271.482.482,0,0,0,.093.28.2.2,0,0,1,.2.16.463.463,0,0,0,.189.041.488.488,0,0,0,.482-.487.488.488,0,0,0-.478-.482.464.464,0,0,0-.189.04A.192.192,0,0,1-690.292-389.842Zm.378.06a.211.211,0,0,1,.2.208.211.211,0,0,1-.2.206.21.21,0,0,1-.207-.212A.211.211,0,0,1-689.914-389.782Z" transform="translate(-109.668 -153.215)" fill="#fff"/>
    <path id="Path_1459" data-name="Path 1459" d="M-689.647-421.431c0,.484,0,.968,0,1.453,0,.025,0,.05,0,.073h.234c0-.394,0-.788-.007-1.182a4.272,4.272,0,0,0-.053-.6c-.044.044-.087.089-.129.134A.192.192,0,0,0-689.647-421.431Z" transform="translate(-110.351 -124.312)" fill="#fff"/>
    <path id="Path_1460" data-name="Path 1460" d="M-701.254-482.437c.1-.1.208-.208.312-.312a4.325,4.325,0,0,0-.785-1.611.4.4,0,0,1-.089-.263q0-1.758,0-3.517c-.252.009-.317.092-.315.373.008,1.2.006,2.392.022,3.587a3.692,3.692,0,0,1,.813,1.791A.284.284,0,0,1-701.254-482.437Z" transform="translate(-98.945 -63.574)" fill="#fff"/>
    <path id="Path_1461" data-name="Path 1461" d="M-799.974-503.891a.846.846,0,0,1-.366-.718c0-.211,0-.422,0-.63.111-.049.218-.087.318-.141a1.336,1.336,0,0,0,.618-.7c.113-.28.222-.563.334-.844a.358.358,0,0,1,.4-.262.357.357,0,0,1,.288.394q0,.224,0,.448a1.045,1.045,0,0,1,.415-.1c0-.116,0-.232,0-.348a.762.762,0,0,0-.33-.673,2.037,2.037,0,0,0-.28-.138h-.3a.942.942,0,0,0-.636.679c-.078.239-.179.471-.277.7a.933.933,0,0,1-.538.525.817.817,0,0,0-1.32-.814.81.81,0,0,0-1.067,0,.818.818,0,0,0-1.324.813.924.924,0,0,1-.538-.524c-.1-.232-.2-.464-.277-.7a.945.945,0,0,0-.636-.679h-.3a.87.87,0,0,0-.614.963c.017,1.4,0,2.8.008,4.2a.45.45,0,0,1-.1.3,4.251,4.251,0,0,0-.826,1.839.213.213,0,0,0,.148.27.211.211,0,0,0,.256-.186c0-.009,0-.018,0-.027a3.939,3.939,0,0,1,1.633-2.492c.388-.277.772-.561,1.156-.845a1.217,1.217,0,0,0,.5-.868,3.309,3.309,0,0,0,0-.387h.5a1.783,1.783,0,0,1-.188,1.03c-.168.273-.337.547-.5.821-.083.136-.065.26.044.325s.224.024.309-.112c.16-.257.315-.517.478-.772a1.665,1.665,0,0,0,.26-.774c.014-.172.02-.344.03-.517h.311v.156q0,.868,0,1.735a.828.828,0,0,0,.009.151.184.184,0,0,0,.194.16.184.184,0,0,0,.2-.155.81.81,0,0,0,.011-.164q0-.861,0-1.722c0-.053.005-.106.009-.162h.312c0,.1,0,.19,0,.28a1.863,1.863,0,0,0,.235.936c.173.281.345.563.519.844.085.137.2.179.307.116s.129-.19.041-.336c-.169-.278-.344-.553-.51-.833a1.708,1.708,0,0,1-.172-1h.485c0,.052,0,.093,0,.134a1.31,1.31,0,0,0,.607,1.192c.432.3.864.608,1.275.939.026.021.051.043.076.064v-.527Zm-4.066-.611a.837.837,0,0,1-.388.635q-.581.417-1.156.843c-.131.1-.257.2-.406.316v-.156q0-1.948,0-3.9a.749.749,0,0,1,.011-.164.346.346,0,0,1,.3-.261.337.337,0,0,1,.35.214c.093.219.189.438.264.664a1.478,1.478,0,0,0,1.026,1.055C-804.037-505-804.025-504.748-804.041-504.5Zm3.285-.761h-2.863c0-.235-.006-.46,0-.684a.339.339,0,0,1,.229-.316.358.358,0,0,1,.386.066c.235.2.328.2.57,0a.37.37,0,0,1,.491,0c.243.2.338.2.569,0a.354.354,0,0,1,.385-.068.346.346,0,0,1,.23.317C-800.749-505.723-800.756-505.5-800.756-505.263Z" transform="translate(-2.79 -45.787)" fill="#fff"/>
    <path id="Path_1462" data-name="Path 1462" d="M-692.424-425.123a4.316,4.316,0,0,1,.055.55c.017.492.013.985.01,1.478h.412q0-.142,0-.284h-.234c0-.023,0-.048,0-.073,0-.484,0-.968,0-1.453a.192.192,0,0,1,.048-.119c.042-.045.085-.089.129-.134q-.027-.166-.066-.327c-.1.1-.207.209-.312.312A.292.292,0,0,0-692.424-425.123Z" transform="translate(-107.815 -120.838)" fill="#fff"/>
    <path id="Path_1463" data-name="Path 1463" d="M-689.438-389.421h.022a.193.193,0,0,0,.188-.178A.5.5,0,0,0-689.438-389.421Z" transform="translate(-110.544 -153.637)" fill="#fff"/>
    <path id="Path_1464" data-name="Path 1464" d="M-809.168-407.541c-.041,0-.083,0-.124,0a.7.7,0,0,1-.646-.567l.461-.2c.029-.013.059-.022.086-.032.11.167.2.217.306.169.167-.074.136-.213.094-.351l.3-.134c.071.109.153.2.293.141s.141-.185.107-.318l.3-.132c.112.17.2.215.315.163s.139-.144.087-.341l.172-.076a.434.434,0,0,0,.261-.671l-.228-.52c.162-.119.2-.195.158-.3s-.125-.141-.342-.111l-.113-.258.051,0a.82.82,0,0,0,.047-.272c-.019-.106-.119-.136-.228-.131-.026,0-.063-.042-.08-.073a.416.416,0,0,0-.6-.213l-.555.245c-.078-.1-.159-.182-.293-.12s-.135.171-.107.3l-.339.148c0-.544,0-1.062,0-1.58a.713.713,0,0,0-.012-.164A.188.188,0,0,0-810-413.1a.189.189,0,0,0-.186.186c0,.046,0,.092,0,.138,0,.872,0,1.744,0,2.617a7.4,7.4,0,0,1-.169,1.666,1.083,1.083,0,0,0,.256.974,1.309,1.309,0,0,0,.69.395h7.711a.97.97,0,0,1-.206-.412Zm-.688-1.4c.03-.553.057-1.107.075-1.661,0-.11.026-.176.136-.214s.235-.1.36-.155c.084.095.175.186.314.111.115-.063.123-.17.091-.29l.623-.275c-.007.059,0,.113-.017.121-.132.066-.188.161-.124.3.05.11.142.127.334.073l.144.318c-.129.075-.195.172-.131.3s.173.137.3.089l.251.567-.27.127c-.076-.122-.161-.242-.325-.161-.142.071-.126.2-.073.333l-.3.132c-.077-.116-.17-.207-.317-.131-.124.064-.129.178-.082.305l-.263.118c-.12-.18-.2-.223-.315-.173s-.142.148-.089.349l-.39.176A3.479,3.479,0,0,0-809.856-408.938Z" transform="translate(0 -132.153)" fill="#fff"/>
    <path id="Path_1465" data-name="Path 1465" d="M-711.545-348.425h-.288a.97.97,0,0,0,.206.412h.464A.642.642,0,0,1-711.545-348.425Z" transform="translate(-90.076 -191.268)" fill="#fff"/>
    <path id="Path_1466" data-name="Path 1466" d="M-691.739-361.628l.3-.5c0-.025-.007-.05-.013-.075l-.034-.16h-.136l-.216.36a.694.694,0,0,1-.215.63.228.228,0,0,0,.113.022h.389a1.08,1.08,0,0,0,.1-.278Z" transform="translate(-108.154 -178.53)" fill="#fff"/>
    <path id="Path_1467" data-name="Path 1467" d="M-689.313-381.143a.491.491,0,0,0,.2.16A.2.2,0,0,0-689.313-381.143Z" transform="translate(-110.658 -161.365)" fill="#fff"/>
    <path id="Path_1468" data-name="Path 1468" d="M-742.4-419.3c.1.106.216.086.373-.077.079-.082.149-.173.221-.257.211.181.316.207.409.112.033-.034.073-.094.063-.129a1.842,1.842,0,0,0-.121-.268l.189-.2c.1.083.2.123.31.029.124-.11.072-.228,0-.321l.207-.243c.169.14.26.154.356.069s.086-.19-.041-.371c.163-.19.189-.28.1-.377-.032-.034-.092-.076-.127-.067a2.315,2.315,0,0,0-.3.124c-.156-.116-.252-.127-.344-.028s-.068.191.062.357l-.227.223c-.1-.084-.21-.127-.318-.028s-.062.229.022.347l-.119.1-.105.1c-.2-.166-.293-.184-.392-.086s-.078.2.1.407c-.08.072-.164.143-.243.22C-742.471-419.522-742.495-419.4-742.4-419.3Z" transform="translate(-62.087 -124.567)" fill="#fff"/>
    <path id="Path_1469" data-name="Path 1469" d="M-598.284-442.538q-.078-1.776-.157-3.552-.124-2.764-.249-5.527c-.007-.167-.058-.238-.2-.254v1.112q-.034.535-.067,1.07-.016.263-.037.525l.254,5.709-.03.006c-.111-.221-.223-.441-.332-.663-.044-.091-.1-.162-.21-.161s-.164.073-.208.163a6.008,6.008,0,0,1-.361.656l.033-.74a1.075,1.075,0,0,1-.223.023h-.189q-.034.768-.068,1.535h-6.986q.034-.769.068-1.535h-.412q-.037.821-.074,1.642c-.011.248.052.309.3.309h8.834C-598.332-442.22-598.273-442.28-598.284-442.538Zm-1.508-.1.484-.968.484.968Z" transform="translate(-185.222 -96.721)" fill="#fff"/>
    <path id="Path_1470" data-name="Path 1470" d="M-604.5-480.382h-.41v-.134c0-.274,0-.548,0-.822h-.274a.91.91,0,0,1-.138-.009c0,.112,0,.224,0,.336l-.406-.177c0-.289-.006-.583,0-.877a.539.539,0,0,1,.181-.384q0-.3,0-.6c-.106,0-.212,0-.318,0a1.029,1.029,0,0,0-1.1,1.1c0,.256,0,.512,0,.764a1.05,1.05,0,0,0-.822,1.144c0,.839-.01,1.678.006,2.516a2.8,2.8,0,0,0,.131.83,2.07,2.07,0,0,1,.087.779q-.063,1.366-.123,2.732h.411q.057-1.278.113-2.555l.039-.032a.566.566,0,0,0,.066.1,2.575,2.575,0,0,0,2.728.714,2.546,2.546,0,0,0,1.846-2.128,8.334,8.334,0,0,0,.042-1.05.379.379,0,0,1,.067-.18c.165-.248.34-.49.5-.74.039-.061.069-.093.145-.091.218.005.437,0,.655,0,.2,0,.271-.068.272-.267,0-.179,0-.358,0-.546h.812l-.3,6.774h.192a.35.35,0,0,0,.222-.072q.008-.19.017-.381c-.05-.106-.11-.208-.166-.311a.74.74,0,0,1-.077-.575,14.04,14.04,0,0,0,.352-1.581l.171-3.857h.122c0-.108,0-.216,0-.324,0-.032,0-.063,0-.093h-.526v-.157c0-.5,0-1,0-1.5a.979.979,0,0,0-.842-.984,5.245,5.245,0,0,0-1.164,0,.987.987,0,0,0-.868,1.014c0,.277,0,.554,0,.829a1.059,1.059,0,0,0-.806.8h-.427v-.147c0-.271,0-.541,0-.812h-.411C-604.5-481.021-604.5-480.7-604.5-480.382Zm4.108-1.664c.008.551,0,1.1,0,1.663h-.41v-.132c0-.431,0-.863,0-1.294a1.262,1.262,0,0,0-.2-.818A.6.6,0,0,1-600.393-482.045Zm-.819,2.49h-.4v-1.165a.55.55,0,0,1,.4.51c0,.03,0,.06,0,.09C-601.212-479.937-601.212-479.753-601.212-479.555Zm-.406-2.517a.543.543,0,0,1,.2-.394.514.514,0,0,1,.2.4c.009.349,0,.7,0,1.056l-.407-.18C-601.621-481.476-601.627-481.775-601.618-482.073Zm-3.713,1.823c.018.228,0,.458,0,.682-.01.009-.013.014-.016.014-.3,0-.268.061-.33-.238a7.692,7.692,0,0,1-.082-.932A.523.523,0,0,1-605.331-480.25Zm.14,5.015a2.266,2.266,0,0,1-2.182-2.184c-.012-.911,0-1.823,0-2.734a.566.566,0,0,1,.41-.574v.14c0,1.031,0,2.062,0,3.093a1.846,1.846,0,0,0,1.87,1.847,1.839,1.839,0,0,0,1.822-1.812c0-.178.037-.288.212-.342a1.166,1.166,0,0,0,.192-.1A2.292,2.292,0,0,1-605.191-475.235Zm-1.363-3.464a2.875,2.875,0,0,0,1.268,1.01,2.646,2.646,0,0,0,1.6.124,1.421,1.421,0,0,1-1.05,1.455,1.436,1.436,0,0,1-1.814-1.375C-606.559-477.889-606.554-478.294-606.554-478.7Zm3.293-1.517a.554.554,0,0,1,.4-.511,1.86,1.86,0,0,1-.381,1.532c-.007,0-.019-.007-.019-.011C-603.263-479.542-603.272-479.879-603.262-480.216Zm.777.419a2.048,2.048,0,0,0,.038-.408c0-.6,0-1.2,0-1.8a.608.608,0,0,1,.6-.624.762.762,0,0,1-.035.076,1.06,1.06,0,0,0-.151.562c0,.6,0,1.207,0,1.81a2.259,2.259,0,0,1-2.329,2.271,2.26,2.26,0,0,1-2.189-2.19c-.009-.638,0-1.275,0-1.913a.6.6,0,0,1,.611-.611,1.37,1.37,0,0,0-.2.925c0,.5,0,1.01,0,1.515a1.851,1.851,0,0,0,1.687,1.859A1.849,1.849,0,0,0-602.484-479.8Zm-1.193-.154v.439c0,.188,0,.376,0,.564a.129.129,0,0,1-.05.1,1.391,1.391,0,0,1-1.55-.29c.062,0,.1,0,.147,0a.207.207,0,0,0,.222-.226c0-.192,0-.384,0-.586Z" transform="translate(-185.167 -68.225)" fill="#fff"/>
    <path id="Path_1471" data-name="Path 1471" d="M-575.82-476.368c0,.072,0,.145,0,.227h.127a1.32,1.32,0,0,0-.132-.652Q-575.824-476.581-575.82-476.368Z" transform="translate(-214.382 -73.943)" fill="#fff"/>
    <path id="Path_1472" data-name="Path 1472" d="M-575.337-481.848c0,.065,0,.131,0,.2h.412c0-.052,0-.1,0-.156a.992.992,0,0,0-.853-1l-.1-.012q0,.205,0,.411A.594.594,0,0,1-575.337-481.848Z" transform="translate(-214.334 -68.433)" fill="#fff"/>
    <path id="Path_1473" data-name="Path 1473" d="M-622-368.314v.512h1.3l.023-.512Z" transform="translate(-172.177 -173.09)" fill="#fff"/>
    <path id="Path_1474" data-name="Path 1474" d="M-510.369-454.768v-.117c-.093-.107-.194-.2-.349-.135a.254.254,0,0,0-.162.248h.439A.616.616,0,0,1-510.369-454.768Z" transform="translate(-273.74 -93.825)" fill="#fff"/>
    <path id="Path_1475" data-name="Path 1475" d="M-576.679-478.137a.975.975,0,0,1,.073.116q0-.054,0-.108C-576.63-478.133-576.654-478.136-576.679-478.137Z" transform="translate(-213.602 -72.715)" fill="#fff"/>
    <path id="Path_1476" data-name="Path 1476" d="M-698.414-551.714h3.675v.226c0,.535,0,1.069,0,1.6,0,.232.091.319.321.32.455,0,.91,0,1.365,0,.284,0,.36-.077.361-.367,0-.654,0-1.309,0-1.963a11.446,11.446,0,0,1,.461-3.23,4.635,4.635,0,0,1,.717-1.536,1.138,1.138,0,0,1,1.838-.087,2.953,2.953,0,0,1,.443.7,8.667,8.667,0,0,1,.721,2.775c.04.341.059.685.089,1.043H-691.8a.9.9,0,0,0-.153,0,.24.24,0,0,0-.222.257.238.238,0,0,0,.216.246.924.924,0,0,0,.17,0h3.363v.214c0,.077,0,.153,0,.23a4.8,4.8,0,0,1,.5.015c0-.566-.011-1.132-.046-1.7a9.4,9.4,0,0,0-.73-3.17.315.315,0,0,1-.012-.052,7.219,7.219,0,0,1,1.578,2.829,11.853,11.853,0,0,1,.247,3.261h-.081q0,.261,0,.521h.233c.275,0,.355-.079.356-.355,0-.5-.016-1,0-1.5a6.678,6.678,0,0,0-.508-2.745,7.018,7.018,0,0,0-1.929-2.852,2.571,2.571,0,0,0-3.481,0,7.08,7.08,0,0,0-1.956,2.895,7.64,7.64,0,0,0-.484,1.9h-.2c-1.138,0-2.276.011-3.413-.005-.044,0-.086,0-.127,0q0,.258,0,.515Zm4.256-.781a7.065,7.065,0,0,1,1.659-3.6,1.1,1.1,0,0,1,.081-.078,14.619,14.619,0,0,0-.778,6.093h-1c-.008-.012-.02-.021-.02-.029A19.353,19.353,0,0,1-694.157-552.5Z" transform="translate(-102.291 0)" fill="#fff"/>
    <path id="Path_1477" data-name="Path 1477" d="M-673.9-368.314h-.008l0,.007Z" transform="translate(-124.737 -173.09)"/>
    <path id="Path_1478" data-name="Path 1478" d="M-704.048-400.662q-.028-.138-.053-.277h-.514c.016.092.032.185.049.277Z" transform="translate(-96.673 -143.272)" fill="#fff"/>
    <path id="Path_1479" data-name="Path 1479" d="M-625.224-368.314v.512h.277v-.512Z" transform="translate(-169.234 -173.09)" fill="#fff"/>
    <path id="Path_1480" data-name="Path 1480" d="M-654.17-367.8h.323l-.307-.512h-.323Z" transform="translate(-142.497 -173.09)" fill="#fff"/>
    <path id="Path_1481" data-name="Path 1481" d="M-677.524-368.063a.083.083,0,0,1-.01.068l-.115.192h.324l.307-.512h-.323l0,.007,0-.007h-.324C-677.622-368.229-677.572-368.146-677.524-368.063Z" transform="translate(-121.297 -173.09)" fill="#fff"/>
    <path id="Path_1482" data-name="Path 1482" d="M-685.824-367.8h.188l.307-.512h-.323l-.205.342C-685.847-367.915-685.836-367.859-685.824-367.8Z" transform="translate(-113.816 -173.09)" fill="#fff"/>
    <path id="Path_1483" data-name="Path 1483" d="M-707.55-489.654c-.016-1.2-.014-2.392-.022-3.587,0-.281.063-.363.315-.373q0-.258,0-.515a1.045,1.045,0,0,0-.415.1q0,1.759,0,3.518c0,.031,0,.062,0,.1l-.409-.3v.527A4.267,4.267,0,0,1-707.55-489.654Z" transform="translate(-93.502 -58.098)" fill="#fff"/>
    <path id="Path_1484" data-name="Path 1484" d="M-686.943-364.34l-.1.17h.136Q-686.927-364.255-686.943-364.34Z" transform="translate(-112.731 -176.722)" fill="#fff"/>
    <path id="Path_1485" data-name="Path 1485" d="M-518.7-400.669a.739.739,0,0,0,.077.575c.055.1.116.205.166.311q.055-1.233.11-2.467A14.057,14.057,0,0,1-518.7-400.669Z" transform="translate(-266.569 -142.074)" fill="#fff"/>
    <path id="Path_1486" data-name="Path 1486" d="M-520.652-369.082h-.192q-.011.256-.023.512h.189a1.077,1.077,0,0,0,.223-.023q.012-.281.025-.561A.35.35,0,0,1-520.652-369.082Z" transform="translate(-264.612 -172.322)" fill="#fff"/>
    <path id="Path_1487" data-name="Path 1487" d="M-510.9-451.831c0,.108,0,.216,0,.324h.307l.1,2.294q.021-.262.037-.525.033-.535.067-1.07v-1.112a.615.615,0,0,0-.072,0h-.439C-510.905-451.894-510.905-451.863-510.9-451.831Z" transform="translate(-273.717 -96.673)" fill="#fff"/>
    <path id="Path_1488" data-name="Path 1488" d="M-569.561-469.213q0,.26,0,.521h.411q0-.261,0-.521Z" transform="translate(-220.108 -80.872)" fill="#fff"/>
    <path id="Path_1489" data-name="Path 1489" d="M-606.421-368.314h-.411l-.023.512h.412Q-606.432-368.058-606.421-368.314Z" transform="translate(-186.022 -173.09)" fill="#fff"/>
    <path id="Path_1490" data-name="Path 1490" d="M-581.7-482.421a.505.505,0,0,1,.2.381c.007.246.006.492,0,.739a.908.908,0,0,0,.138.009h.274c0-.149,0-.3,0-.446q0-.038,0-.075h-.127c0-.082,0-.154,0-.227q0-.213-.006-.426a.961.961,0,0,0-.073-.116c.025,0,.049,0,.072.008q0-.205,0-.411a4.8,4.8,0,0,0-.5-.015q0,.3,0,.6Z" transform="translate(-209.001 -68.271)" fill="#fff"/>
    <path id="Path_1491" data-name="Path 1491" d="M-551.688-493.66a.709.709,0,0,0,.17.008h2.8c.285,0,.361.077.361.365,0,.557,0,1.114,0,1.671,0,.224.177.358.357.273a.823.823,0,0,0,.154-.125v-2.083a.869.869,0,0,0-.954-.62c-.9.018-1.807.005-2.711.006a.787.787,0,0,0-.17.007.238.238,0,0,0-.2.238A.24.24,0,0,0-551.688-493.66Z" transform="translate(-236.26 -58.062)" fill="#fff"/>
  </g>
</svg>
