<svg xmlns="http://www.w3.org/2000/svg" width="28.814" height="34.572" viewBox="0 0 28.814 34.572">
  <g id="Group_2212" data-name="Group 2212" transform="translate(-19.589 -16.712)">
    <path id="Path_1138" data-name="Path 1138" d="M42.622,25.622a14.487,14.487,0,0,0-6.915-4.691V18.822H37.17V15.941H35.729V14.5H32.848v1.441H29.967V14.5H27.085v1.441H25.645v2.881h1.441v2.1A14.407,14.407,0,1,0,42.61,25.611ZM31.407,46.195a11.525,11.525,0,0,1-2.559-22.763A1.441,1.441,0,0,0,30,22.026v-3.2h2.881v3.169A1.441,1.441,0,0,0,34.035,23.4a11.525,11.525,0,0,1-2.628,22.8Z" transform="translate(2.593 2.212)" fill="#fff"/>
    <path id="Path_1139" data-name="Path 1139" d="M30.835,23.25A10.085,10.085,0,1,0,40.919,33.335,10.085,10.085,0,0,0,30.835,23.25ZM28.461,35.709l-1.014,1.014-.934-.934-.934.934-1.014-1.014.934-.934-.934-.934,1.014-1.014.934.934.934-.934,1.014,1.014-.934.934ZM37.1,32.828,36.09,33.842l-.934-.934-.934.934-1.014-1.014.934-.934-.934-.934,1.014-1.014.934.934.934-.934L37.1,30.961l-.934.934ZM31.342,29.37l-1.014,1.014-.934-.934-.934.934L27.446,29.37l.934-.934-.934-.934,1.014-1.014.934.934.934-.934L31.342,27.5l-.934.934ZM34.8,38.59,33.785,39.6l-.934-.934-.934.934L30.9,38.59l.934-.934-.934-.934,1.014-1.014.934.934.934-.934L34.8,36.723l-.934.934Z" transform="translate(3.165 3.547)" fill="#fff"/>
  </g>
</svg>
