<svg xmlns="http://www.w3.org/2000/svg" width="44.684" height="23.051" viewBox="0 0 44.684 23.051">
  <g id="Group_2208" data-name="Group 2208" transform="translate(-11.664 -22.475)">
    <circle id="Ellipse_17" data-name="Ellipse 17" cx="1.487" cy="1.487" r="1.487" transform="translate(36.985 29.62)" fill="#fff"/>
    <path id="Path_1131" data-name="Path 1131" d="M11.607,22.474h.5V41.295l12.517-9.382a1.487,1.487,0,0,1,1.786,0l9.462,7.1,5.521-5.025a1.487,1.487,0,0,1,2.005,0l9.428,8.563V22.474h.5a1.487,1.487,0,1,0,0-2.974H11.607a1.487,1.487,0,0,0,0,2.974ZM36.963,32.6a4.444,4.444,0,1,0-.035,0Z" transform="translate(1.544 2.975)" fill="#fff"/>
    <path id="Path_1132" data-name="Path 1132" d="M14.71,40.482H34.9l-10.1-7.572Z" transform="translate(2.244 5.02)" fill="#fff"/>
    <path id="Path_1133" data-name="Path 1133" d="M34.56,38.493,36.865,40.2h7.768L38.652,34.77Z" transform="translate(5.272 5.304)" fill="#fff"/>
  </g>
</svg>
