<svg xmlns="http://www.w3.org/2000/svg" width="28.659" height="24.373" viewBox="0 0 28.659 24.373">
  <g id="Group_2205" data-name="Group 2205" transform="translate(1541.456 102.09)">
    <path id="Path_1492" data-name="Path 1492" d="M-1346.749,41.288a.355.355,0,0,0,0-.265c-.237-.456-.488-.9-.751-1.385a2.878,2.878,0,0,1-1.047,1.218,2.951,2.951,0,0,1-1.59.232,7.457,7.457,0,0,1,.526.982.856.856,0,0,0,1.051.573,3.292,3.292,0,0,0,.464-.058,1.492,1.492,0,0,0,.5-.193A2.528,2.528,0,0,0-1346.749,41.288Z" transform="translate(-181.672 -134.581)" fill="none" stroke="#AAACAC" stroke-width="0.1"/>
    <path id="Path_1493" data-name="Path 1493" d="M-1359.287,21.545a1.211,1.211,0,0,0,.882-.442c.179-.224.342-.461.5-.7a.471.471,0,0,0,0-.606,1.3,1.3,0,0,1-.136-.246c-.072-.152-.168-.179-.317-.1-.371.21-.746.41-1.12.615s-.746.411-1.121.612c-.14.075-.174.166-.091.3a3,3,0,0,1,.188.347.336.336,0,0,0,.318.223C-1359.885,21.563-1359.585,21.569-1359.287,21.545Zm-.029-1.216a.456.456,0,0,1,.6.193.456.456,0,0,1-.2.613.456.456,0,0,1-.6-.193A.455.455,0,0,1-1359.316,20.329Z" transform="translate(-171.608 -115.369)" fill="none" stroke="#AAACAC" stroke-width="0.1"/>
    <path id="Path_1494" data-name="Path 1494" d="M-1304.047,100.869l-2.232-4.643-.8.44,2.629,4.426Z" transform="translate(-222.567 -188.33)" fill="none" stroke="#AAACAC" stroke-width="0.1"/>
    <path id="Path_1495" data-name="Path 1495" d="M-1420.194,5.469c-.2-.1-.408-.182-.633-.281-.027.167-.038.317-.077.459a.653.653,0,0,0,.09.514q2.682,4.888,5.355,9.78l.108.2.782-.428a.709.709,0,0,0-.026-.069q-2.752-5.032-5.505-10.062A.256.256,0,0,0-1420.194,5.469Zm3.984,8.159c.11.053.207.071.22.114a.231.231,0,0,1-.057.2c-.026.024-.155-.01-.179-.052S-1416.221,13.752-1416.21,13.629Zm-1.547-2.842c.035-.03.127.007.247.021-.056.11-.073.2-.125.228s-.171-.018-.18-.052A.229.229,0,0,1-1417.757,10.787Zm-1.628-2.97c.109.056.206.075.218.119s-.033.135-.053.2c-.065-.02-.162-.021-.185-.064S-1419.4,7.939-1419.385,7.816Z" transform="translate(-114.437 -101.859)" fill="none" stroke="#AAACAC" stroke-width="0.1"/>
    <path id="Path_1496" data-name="Path 1496" d="M-1409.971,336.152c.043-.013.062-.11.112-.212-.113-.02-.2-.062-.238-.035s-.054.128-.079.2C-1410.107,336.121-1410.03,336.169-1409.971,336.152Z" transform="translate(-124.647 -415.975)" fill="none" stroke="#AAACAC" stroke-width="0.1"/>
    <path id="Path_1498" data-name="Path 1498" d="M-1177.537-61.294l1.829-4.284a4.8,4.8,0,0,1,.454-.946,1.224,1.224,0,0,0,.213-.539l-.241-.049c-.368-.075-.735-.152-1.1-.225-.13-.026-.256-.069-.227-.228.032-.174.173-.164.31-.132.06.014.12.025.18.037l1.147.234.074-.36c-.635-.13-1.257-.258-1.878-.383-.13-.026-.254-.07-.225-.229s.155-.166.289-.134c.067.016.135.028.2.042l1.685.344.808-3.954-2.715-.555a.271.271,0,0,0-.006.072,3.111,3.111,0,0,1-2.11,3.384.357.357,0,0,0-.2.2c-.39,1.281-.775,2.563-1.148,3.849l-.03.1q.8,1.077,1.577,2.171Q-1178.094-62.086-1177.537-61.294Z" transform="translate(-343.054 -27.923)" fill="none" stroke="#AAACAC" stroke-width="0.1"/>
    <path id="Path_1500" data-name="Path 1500" d="M-1533.131,13a10.66,10.66,0,0,1,2.2-2.463,2.715,2.715,0,0,1-1.044-1.109c-.3.286-.58.536-.842.8a7.194,7.194,0,0,0-1.253,1.634c-.03.055-.052.164-.022.194C-1533.784,12.372-1533.463,12.676-1533.131,13Z" transform="translate(-6.934 -105.884)" fill="none" stroke="#AAACAC" stroke-width="0.1"/>
    <path id="Path_1501" data-name="Path 1501" d="M-1528.832,82.673c-.837-2.7-1.682-5.4-2.508-8.11a3.484,3.484,0,0,0-.852-1.559l-2.37-2.3c-.036-.035-.075-.066-.113-.1l-.041.024a87.848,87.848,0,0,0,4.328,12.7l1.588-.512C-1528.813,82.755-1528.819,82.713-1528.832,82.673Z" transform="translate(-6.355 -163.991)" fill="none" stroke="#AAACAC" stroke-width="0.1"/>
    <path id="Path_1502" data-name="Path 1502" d="M-1486.49-11.929a9.752,9.752,0,0,0,2.034,1.16c.049.022.1.037.166.061.1-.665.205-1.313.31-1.984a2.7,2.7,0,0,1-2.776-.964.929.929,0,0,0-.3.954A1.436,1.436,0,0,0-1486.49-11.929Z" transform="translate(-51.596 -83.96)" fill="none" stroke="#AAACAC" stroke-width="0.1"/>
    <path id="Path_1503" data-name="Path 1503" d="M-1415.076-54.591l1.863.82c.045-.732.1-1.417.121-2.1a3.3,3.3,0,0,0-.106-.889.966.966,0,0,0-1.2-.7A2.73,2.73,0,0,1-1415.076-54.591Z" transform="translate(-119.993 -42.325)" fill="none" stroke="#AAACAC" stroke-width="0.1"/>
    <path id="Path_1504" data-name="Path 1504" d="M-1475.015-52.3q1.446-.785,2.887-1.58c.04-.022.088-.083.083-.12-.023-.177-.062-.353-.1-.546l-3.422,1.872c.142.135.269.263.405.377A.166.166,0,0,0-1475.015-52.3Z" transform="translate(-62.538 -45.125)" fill="none" stroke="#AAACAC" stroke-width="0.1"/>
    <path id="Path_1505" data-name="Path 1505" d="M-1372.555-61.585c-.09-.436-.179-.838-.252-1.244-.023-.126-.078-.159-.2-.166a7.483,7.483,0,0,0-2.068.183c-.364.079-.724.177-1.115.273a2.665,2.665,0,0,1,.347,1.485A10.613,10.613,0,0,1-1372.555-61.585Z" transform="translate(-156.932 -37.086)" fill="none" stroke="#AAACAC" stroke-width="0.1"/>
    <path id="Path_1506" data-name="Path 1506" d="M-1458.755-33.618a1.861,1.861,0,0,0,.88-1.647l-2.791,1.527A1.871,1.871,0,0,0-1458.755-33.618Z" transform="translate(-76.69 -63.436)" fill="none" stroke="#AAACAC" stroke-width="0.1"/>
    <path id="Path_1507" data-name="Path 1507" d="M-1330.938,42.305c.024-.069.077-.145.062-.2-.011-.044-.11-.065-.215-.121-.018.117-.058.2-.031.245S-1331,42.28-1330.938,42.305Z" transform="translate(-199.726 -136.805)" fill="none" stroke="#AAACAC" stroke-width="0.1"/>
    <path id="Path_1514" data-name="Path 1514" d="M-1256.725,123.835l1.148,2.1.244-.134-1.148-2.1Z" transform="translate(-270.399 -214.426)" fill="none" stroke="#AAACAC" stroke-width="0.1"/>
    <path id="Path_1515" data-name="Path 1515" d="M-1386.964-18.992q-.636-1.164-1.273-2.327c-.643-1.178-1.3-2.35-1.925-3.536a7.288,7.288,0,0,1-.821-1.971c-.112-.565-.237-1.127-.339-1.694-.035-.2-.1-.264-.311-.261a11.034,11.034,0,0,0-2.988.517c-.112.034-.114.107-.123.2-.055.561-.11,1.122-.173,1.682-.028.244-.1.275-.327.175l-.827-.364,5.393,9.858,1.434-.784c-.026-.048-.046-.086-.067-.123q-1.288-2.167-2.58-4.331a.268.268,0,0,0-.188-.1c-.255-.02-.512-.01-.766-.037a.58.58,0,0,1-.463-.34c-.393-.736-.8-1.465-1.2-2.2a.47.47,0,0,1,.211-.734q1.113-.611,2.228-1.219a.465.465,0,0,1,.721.205c.411.748.826,1.493,1.222,2.248a.622.622,0,0,1,.048.444,2.522,2.522,0,0,1-.369.689.378.378,0,0,0-.037.466c.515,1.053,1.019,2.112,1.527,3.168.214.445.431.889.652,1.344l1.351-.739.041-.143Zm-.632.262c-.066.037-.131.076-.2.107a.291.291,0,0,1-.4-.124c-.389-.7-.772-1.407-1.156-2.112a.292.292,0,0,1-.031-.107c-.022-.194.133-.35.451-.459a.306.306,0,0,1,.39.172c.186.334.368.671.552,1.006s.368.67.55,1.007C-1387.315-19-1387.359-18.862-1387.6-18.73Z" transform="translate(-138.045 -69.594)" fill="none" stroke="#AAACAC" stroke-width="0.1"/>
    <path id="Path_1520" data-name="Path 1520" d="M-1146.884,192.1c-.02.065-.073.147-.051.19a.174.174,0,0,0,.09.064l.095-.222C-1146.792,192.115-1146.842,192.109-1146.884,192.1Z" transform="translate(-374.676 -279.39)" fill="none" stroke="#AAACAC" stroke-width="0.1"/>
    <path id="Path_1524" data-name="Path 1524" d="M-1502.037,40.805l-.978-1.585q-.81-1.312-1.617-2.626a.263.263,0,0,0-.272-.135,6.22,6.22,0,0,1-.839-.043.51.51,0,0,1-.385-.3c-.4-.745-.811-1.486-1.216-2.229a.465.465,0,0,1,.206-.721q1.121-.616,2.244-1.228a.465.465,0,0,1,.718.215c.407.742.81,1.486,1.221,2.226a.514.514,0,0,1,.044.486,6.344,6.344,0,0,1-.393.7.227.227,0,0,0-.021.266c.42.827.833,1.658,1.249,2.487.352.7.706,1.4,1.066,2.114l1.438-.787-5.395-9.861c-.05.316-.093.592-.137.867-.046.291-.1.331-.37.2-.5-.238-1-.5-1.5-.738a.241.241,0,0,0-.209,0,10.305,10.305,0,0,0-2.066,2.267.2.2,0,0,0,.038.312,15.046,15.046,0,0,1,1.468,1.45,13.822,13.822,0,0,1,1.222,1.891c1.023,1.827,2.017,3.67,3.022,5.507l.108.2,1.438-.786C-1501.984,40.9-1502.009,40.852-1502.037,40.805Zm-.749.275c-.071.04-.141.082-.215.116a.29.29,0,0,1-.406-.117q-.584-1.053-1.156-2.112a.291.291,0,0,1,.115-.407c.068-.044.142-.081.214-.119a.312.312,0,0,1,.486.139c.189.34.374.682.56,1.023s.363.659.541.99A.313.313,0,0,1-1502.786,41.08Z" transform="translate(-30.492 -125.226)" fill="none" stroke="#AAACAC" stroke-width="0.1"/>
    <path id="Path_1525" data-name="Path 1525" d="M-995.818-39.806a9.713,9.713,0,0,0-.431-3.308A2.614,2.614,0,0,0-995.818-39.806Z" transform="translate(-517.415 -55.981)" fill="none" stroke="#AAACAC" stroke-width="0.1"/>
    <path id="Path_1526" data-name="Path 1526" d="M-1305.792,220.364l-.781.427.567,1.036.781-.427-.286-.523Zm-.053.864c-.043.021-.17-.023-.178-.058a.229.229,0,0,1,.064-.2c.035-.028.126.012.245.029C-1305.772,221.112-1305.793,221.2-1305.845,221.228Z" transform="translate(-223.053 -306.24)" fill="none" stroke="#AAACAC" stroke-width="0.1"/>
    <path id="Path_1527" data-name="Path 1527" d="M-1052.751,198.383c-.11.248-.053.564-.4.666.589-.027.885.529,1.4.675.071-.27.065-.558.386-.673C-1051.944,199.069-1052.253,198.539-1052.751,198.383Z" transform="translate(-463.758 -285.361)" fill="none" stroke="#AAACAC" stroke-width="0.1"/>
    <path id="Path_1528" data-name="Path 1528" d="M-1066.6-55.844l-1.834-.375c-.155.758-.307,1.5-.458,2.242a1.184,1.184,0,0,1-.859.977c-.345.106-.373.17-.35.549q.907.185,1.819.371c.14.028.3.056.257.245s-.2.142-.34.114l-.99-.2-.848-.173-.074.36.251.051c.383.078.768.147,1.146.243.072.018.116.144.173.22a.851.851,0,0,1-.235.126.712.712,0,0,1-.246-.043l-1.191-.243a3.549,3.549,0,0,0-.026.457c.011.149.081.295.081.442q.01,7.581,0,15.161a.414.414,0,0,0,.275.441,3.527,3.527,0,0,0,1.8.253c.222-.024.317-.126.344-.363.193-1.665.4-3.328.608-4.991q.268-2.176.535-4.353c.183-1.481.375-2.961.553-4.443.113-.942.211-1.885.308-2.829a.292.292,0,0,0-.078-.213A3.1,3.1,0,0,1-1066.6-55.844Zm-.933,13.412c-.155.056-.183.153-.216.281-.086.336-.252.452-.553.421-.186-.116-.367-.24-.558-.346s-.415-.211-.627-.306a1.713,1.713,0,0,1-.361-.133.446.446,0,0,1-.177-.311.4.4,0,0,1,.219-.278.372.372,0,0,0,.262-.295c.089-.392.307-.491.681-.341a.421.421,0,0,1,.1.048,3.173,3.173,0,0,0,1.252.629.431.431,0,0,1,.232.337C-1067.27-42.624-1067.417-42.473-1067.53-42.432Z" transform="translate(-447.371 -43.533)" fill="none" stroke="#AAACAC" stroke-width="0.1"/>
    <path id="Path_1529" data-name="Path 1529" d="M-1388.336,234.194c.124.226.237.442.359.653a.419.419,0,0,0,.623.167l1.764-.965,1.643-.9-.571-1.044Z" transform="translate(-145.391 -317.392)" fill="none" stroke="#AAACAC" stroke-width="0.1"/>
    <path id="Path_1530" data-name="Path 1530" d="M-1408.215,157.858l-2.31-4.6-.8.44,2.706,4.383Z" transform="translate(-123.552 -242.5)" fill="none" stroke="#AAACAC" stroke-width="0.1"/>
    <path id="Path_1531" data-name="Path 1531" d="M-1152-66.5c1.127-.351,2.087-2,1.68-2.863A9.133,9.133,0,0,0-1152-66.5Z" transform="translate(-369.874 -31.047)" fill="none" stroke="#AAACAC" stroke-width="0.1"/>
    <path id="Path_1532" data-name="Path 1532" d="M-1045.638-81.092l-1.416-.289-.142.693,1.416.289Z" transform="translate(-469.415 -19.634)" fill="none" stroke="#AAACAC" stroke-width="0.1"/>
    <path id="Path_1533" data-name="Path 1533" d="M-1010-73.818l-1.044-.213-.143.7,1.044.213Z" transform="translate(-503.613 -26.615)" fill="none" stroke="#AAACAC" stroke-width="0.1"/>
    <path id="Path_1534" data-name="Path 1534" d="M-1060.4-57.577c.125-.59.244-1.181.366-1.771.035-.169.069-.339.106-.516l-.523-.107-.626,3.064A.776.776,0,0,0-1060.4-57.577Z" transform="translate(-456.227 -39.97)" fill="none" stroke="#AAACAC" stroke-width="0.1"/>
    <path id="Path_1535" data-name="Path 1535" d="M-1081.376-88.4l-1.412-.289-.142.693,1.412.289Z" transform="translate(-435.474 -12.696)" fill="none" stroke="#AAACAC" stroke-width="0.1"/>
    <path id="Path_1536" data-name="Path 1536" d="M-1111.748-93.843l1.06.217.141-.688-1.06-.217Z" transform="translate(-408.102 -7.143)" fill="none" stroke="#AAACAC" stroke-width="0.1"/>
    <path id="Path_1537" data-name="Path 1537" d="M-1409.376,207.35l1.148,2.1.245-.134-1.148-2.1Z" transform="translate(-125.407 -293.751)" fill="none" stroke="#AAACAC" stroke-width="0.1"/>
    <path id="Path_1538" data-name="Path 1538" d="M-1463.344,78.141c.053-.078.1-.159.148-.239a.511.511,0,0,0,.006-.657,1.233,1.233,0,0,1-.11-.2c-.119-.216-.153-.227-.365-.112l-1.088.595c-.374.2-.746.411-1.121.612-.139.074-.177.163-.094.3a3.574,3.574,0,0,1,.2.363.357.357,0,0,0,.289.208A1.906,1.906,0,0,0-1463.344,78.141Zm-1.26-.346a.454.454,0,0,1,.614.19.455.455,0,0,1-.184.6.457.457,0,0,1-.615-.189A.457.457,0,0,1-1464.6,77.795Z" transform="translate(-71.613 -169.939)" fill="none" stroke="#AAACAC" stroke-width="0.1"/>
    <path id="Path_1539" data-name="Path 1539" d="M-1435.827,101c.009-.118.042-.2.011-.247s-.123-.045-.189-.065c-.019.071-.066.151-.046.209C-1436.037,100.943-1435.936,100.957-1435.827,101Z" transform="translate(-100.066 -192.572)" fill="none" stroke="#AAACAC" stroke-width="0.1"/>
    <path id="Path_1540" data-name="Path 1540" d="M-1454.634,100.263a2.923,2.923,0,0,0,1.281-.111.742.742,0,0,0,.232-.121,2.691,2.691,0,0,0,.83-1.1.425.425,0,0,0-.019-.315c-.21-.413-.439-.817-.663-1.224a1.215,1.215,0,0,0-.088-.118,2.274,2.274,0,0,1-2.629,1.422c.258.472.5.9.722,1.328A.4.4,0,0,0-1454.634,100.263Z" transform="translate(-81.417 -189.331)" fill="none" stroke="#AAACAC" stroke-width="0.1"/>
    <path id="Path_1541" data-name="Path 1541" d="M-1445.489,317.056c.059.13.187.126.312.085.5-.165,1-.324,1.5-.5a.373.373,0,0,0,.261-.5c-.036-.146-.079-.289-.121-.433-.108-.37-.217-.74-.33-1.125l-2.367.764C-1445.986,315.927-1445.743,316.494-1445.489,317.056Zm.984-1.666a.455.455,0,0,1,.609.2.456.456,0,0,1-.187.6.456.456,0,0,1-.613-.185A.455.455,0,0,1-1444.5,315.389Z" transform="translate(-90.393 -395.731)" fill="none" stroke="#AAACAC" stroke-width="0.1"/>
    <path id="Path_1542" data-name="Path 1542" d="M-1456.959,161.871c-.281-.467-.528-.955-.79-1.434l-.092-.169-.031.015,2.358,7.6.5-.16a1.2,1.2,0,0,0-.02-.119c-.342-1.179-.7-2.353-1.02-3.537A8.493,8.493,0,0,0-1456.959,161.871Z" transform="translate(-79.345 -249.16)" fill="none" stroke="#AAACAC" stroke-width="0.1"/>
    <path id="Path_1543" data-name="Path 1543" d="M-1170.62,196.306q.436.5.875.995l.134-.315c-.2-.219-.4-.442-.6-.668A1.847,1.847,0,0,0-1170.62,196.306Z" transform="translate(-352.184 -283.383)" fill="#AAACAC" stroke="#AAACAC" stroke-width="0.1"/>
    <path id="Path_1544" data-name="Path 1544" d="M-1146.091,161.208q.292.425.582.852a.269.269,0,0,1-.065.408c-.405.324-.8.656-1.21.979a.368.368,0,0,1-.423.071l-.117.274a.633.633,0,0,0,.7-.09c.436-.337.861-.688,1.285-1.041a.518.518,0,0,0,.13-.678,2.15,2.15,0,0,0-.162-.275l-.662-.94-.138.324Z" transform="translate(-374.31 -249.635)" fill="#AAACAC" stroke="#AAACAC" stroke-width="0.1"/>
    <path id="Path_1545" data-name="Path 1545" d="M-1186.633,175.2l-.343-.387-.369.036.14.16.4.46c.034-.005.069-.01.1-.013.089-.009.178-.012.269-.012l-.008-.01.369-.3a3.34,3.34,0,0,0,.043-.41l-.289.028.094.111Z" transform="translate(-336.298 -262.883)" fill="#AAACAC" stroke="#AAACAC" stroke-width="0.1"/>
    <path id="Path_1546" data-name="Path 1546" d="M-1218.22,170.66a.507.507,0,0,1-.057-.373c0-.028.008-.054.01-.08a.86.86,0,0,0-.045-.091c-.149-.259-.295-.521-.439-.783l-.123.429c.126.225.26.448.365.683a.373.373,0,0,1-.185.449l-.6.329-.12.416.783-.425A.825.825,0,0,0-1218.22,170.66Z" transform="translate(-305.837 -257.769)" fill="#AAACAC" stroke="#AAACAC" stroke-width="0.1"/>
    <path id="Path_1547" data-name="Path 1547" d="M-1202.683,153.108a1.625,1.625,0,0,0,.306.057l-.771-.882-.1.342.422.483A.242.242,0,0,1-1202.683,153.108Z" transform="translate(-321.195 -241.574)" fill="#AAACAC" stroke="#AAACAC" stroke-width="0.1"/>
    <path id="Path_1548" data-name="Path 1548" d="M-1196.033,133.825a.541.541,0,0,1,.143-.022c-.171-.2-.339-.4-.506-.6l-.981-1.164-.1.347,1.255,1.489Q-1196.127,133.855-1196.033,133.825Z" transform="translate(-326.675 -222.35)" fill="#AAACAC" stroke="#AAACAC" stroke-width="0.1"/>
    <path id="Path_1549" data-name="Path 1549" d="M-1527.96-53.511a.173.173,0,0,1-.046.007l-.565-1.032,3.449-1.887.125-.434-1.351.739c-.221-.455-.437-.9-.652-1.344-.509-1.056-1.012-2.115-1.527-3.168a.378.378,0,0,1,.037-.466,2.516,2.516,0,0,0,.369-.689.622.622,0,0,0-.048-.444c-.4-.755-.811-1.5-1.221-2.248a.465.465,0,0,0-.721-.205q-1.115.608-2.228,1.219a.469.469,0,0,0-.211.734c.4.732.8,1.461,1.2,2.2a.58.58,0,0,0,.463.34c.254.026.511.017.766.037a.268.268,0,0,1,.188.1q1.3,2.162,2.58,4.331c.022.037.041.075.068.123l-1.433.784-5.393-9.858.827.364c.23.1.3.069.327-.175.064-.56.119-1.121.173-1.682.009-.091.01-.165.123-.2a11.034,11.034,0,0,1,2.988-.517c.206,0,.276.066.311.261.1.567.227,1.129.339,1.694a7.284,7.284,0,0,0,.821,1.971c.629,1.186,1.281,2.358,1.925,3.536q.636,1.164,1.273,2.327l.053.1.117-.405c-.19-.35-.379-.7-.57-1.05l-.085-.155.02-.015c.034.034.071.066.1.1l.642.734.1-.342-1.533-1.754a.527.527,0,0,1-.072-.086q-.723-1.317-1.443-2.636l.026-.019,3.217,3.817.1-.347c-1.313-1.557-2.627-3.115-3.926-4.684a2.291,2.291,0,0,1-.414-.933c-.259-1.135-.477-2.278-.71-3.419a.531.531,0,0,1-.005-.074l.043-.022a63.342,63.342,0,0,1,5.677,6.8l.1-.37q-1.29-1.724-2.648-3.4a31.794,31.794,0,0,0-2.748-3.057c-.7-.661-.469-.587-1.486-.589a9.46,9.46,0,0,0-2.693.467.33.33,0,0,1-.315,0,1.251,1.251,0,0,0-1.338-.034q-1.752.952-3.5,1.913a1.1,1.1,0,0,0-.642.873.985.985,0,0,1-.456.754c-.043.036-.084.075-.126.113a8.785,8.785,0,0,0-1.766,2.155.79.79,0,0,0-.106.572c.065.306.1.618.175.922a69.744,69.744,0,0,0,2.9,8.828c.469,1.229.967,2.447,1.46,3.667.211.523.428,1.044.665,1.555a.518.518,0,0,0,.716.3c.471-.152.939-.311,1.409-.467a.691.691,0,0,0,.517-.971q-.593-2.067-1.194-4.132c-.1-.336-.193-.673-.289-1.01.481.815.93,1.641,1.384,2.464a.721.721,0,0,0,1.052.3q3.442-1.883,6.885-3.763l.12-.414Zm-4.149-9.034a3.033,3.033,0,0,0-.188-.347c-.083-.138-.05-.229.091-.3.376-.2.748-.407,1.122-.612s.749-.405,1.12-.615c.149-.084.245-.057.317.1a1.3,1.3,0,0,0,.136.246.472.472,0,0,1,0,.606c-.161.237-.325.474-.5.7a1.211,1.211,0,0,1-.882.442c-.3.024-.6.017-.9.013A.336.336,0,0,1-1532.11-62.545Zm1.875,2.1a.856.856,0,0,1-1.051-.573,7.427,7.427,0,0,0-.525-.982,2.951,2.951,0,0,0,1.59-.232,2.879,2.879,0,0,0,1.048-1.218c.263.481.514.929.751,1.385a.355.355,0,0,1,0,.265,2.529,2.529,0,0,1-.846,1.1,1.491,1.491,0,0,1-.5.193A3.3,3.3,0,0,1-1530.234-60.449Zm.584.274.8-.44,2.233,4.643-.407.223Zm.618,5.447a.618.618,0,0,1,.026.069l-.783.428-.108-.2q-2.676-4.891-5.354-9.78a.653.653,0,0,1-.09-.514c.038-.143.05-.292.077-.459.225.1.431.185.633.281a.256.256,0,0,1,.094.11Q-1531.784-59.761-1529.033-54.729ZM-1532-68.409a7.484,7.484,0,0,1,2.068-.183c.118.007.173.04.2.166.073.405.162.808.252,1.244a10.614,10.614,0,0,0-3.283.53,2.664,2.664,0,0,0-.347-1.485C-1532.727-68.233-1532.367-68.33-1532-68.409Zm-1.188.809a3.293,3.293,0,0,1,.106.889c-.019.687-.076,1.372-.121,2.1l-1.863-.82a2.731,2.731,0,0,0,.673-2.87A.966.966,0,0,1-1533.191-67.6Zm-2.254,2.035a1.871,1.871,0,0,1-1.911-.12l2.791-1.527A1.861,1.861,0,0,1-1535.445-65.566Zm.764-2.614c.037.193.076.368.1.546,0,.037-.043.1-.083.12q-1.441.795-2.887,1.58a.166.166,0,0,1-.146,0c-.137-.115-.263-.242-.405-.377Zm-3.669,2.051a2.7,2.7,0,0,0,2.775.964l-.31,1.984c-.066-.024-.117-.039-.166-.061a9.749,9.749,0,0,1-2.034-1.16,1.435,1.435,0,0,1-.565-.773A.929.929,0,0,1-1538.35-66.128Zm-2.655,3.6a7.194,7.194,0,0,1,1.253-1.634c.263-.267.542-.518.842-.8a2.717,2.717,0,0,0,1.044,1.109,10.655,10.655,0,0,0-2.2,2.463c-.333-.322-.653-.626-.963-.941C-1541.057-62.369-1541.034-62.478-1541-62.533Zm-.067.657.041-.024c.038.033.078.064.114.1l2.37,2.3a3.486,3.486,0,0,1,.852,1.559c.825,2.707,1.67,5.407,2.508,8.11.012.04.019.082.032.141l-1.588.512A87.818,87.818,0,0,1-1541.072-61.876Zm7.136,13.342c.042.144.086.288.121.433a.373.373,0,0,1-.261.5c-.5.171-1,.33-1.5.5-.124.041-.253.045-.312-.085-.254-.562-.5-1.129-.75-1.709l2.367-.764C-1534.153-49.275-1534.043-48.905-1533.936-48.535Zm-.443-1.532c.009.03.01.061.02.119l-.5.16-2.358-7.6.031-.015.092.169c.262.479.509.967.789,1.434a8.5,8.5,0,0,1,.9,2.2C-1535.08-52.419-1534.721-51.245-1534.379-50.066Zm.388-2.124c-1.006-1.837-2-3.68-3.022-5.507a13.812,13.812,0,0,0-1.222-1.891,15.005,15.005,0,0,0-1.468-1.45.2.2,0,0,1-.038-.312,10.308,10.308,0,0,1,2.066-2.267.242.242,0,0,1,.209,0c.5.242,1,.5,1.5.738.272.128.324.089.37-.2.043-.275.087-.551.136-.867l5.395,9.861-1.438.787c-.361-.715-.715-1.414-1.067-2.114-.417-.829-.829-1.66-1.249-2.487a.226.226,0,0,1,.022-.266,6.342,6.342,0,0,0,.393-.7.512.512,0,0,0-.044-.486c-.411-.74-.814-1.484-1.221-2.226a.465.465,0,0,0-.719-.215q-1.123.612-2.244,1.228a.465.465,0,0,0-.206.721c.405.743.815,1.484,1.216,2.229a.511.511,0,0,0,.385.3,6.218,6.218,0,0,0,.839.043.263.263,0,0,1,.272.135q.8,1.316,1.617,2.626l.977,1.585c.029.046.053.1.084.152l-1.437.786Zm-.487-8.372a1.269,1.269,0,0,1,.088.118c.224.406.453.81.663,1.224a.425.425,0,0,1,.019.315,2.693,2.693,0,0,1-.83,1.1.743.743,0,0,1-.232.121,2.923,2.923,0,0,1-1.281.111.4.4,0,0,1-.335-.233c-.223-.432-.463-.855-.722-1.328A2.274,2.274,0,0,0-1534.478-60.562Zm-2.905.921a3.574,3.574,0,0,0-.2-.363c-.083-.14-.045-.229.094-.3.376-.2.748-.407,1.121-.612l1.088-.595c.211-.115.245-.1.365.112a1.262,1.262,0,0,0,.11.2.51.51,0,0,1-.006.657c-.049.08-.1.162-.148.239a1.906,1.906,0,0,1-2.138.877A.357.357,0,0,1-1537.384-59.641Zm3.306,1.888,2.31,4.6-.408.223-2.706-4.383Zm3.1,5.9-1.764.965a.42.42,0,0,1-.623-.167c-.121-.211-.235-.427-.359-.653l3.818-2.088.571,1.044Zm1.923-1.07-.567-1.036.781-.427.28.512.286.523Z" transform="translate(0 -31.489)" fill="#AAACAC" stroke="#AAACAC" stroke-width="0.1"/>
    <path id="Path_1550" data-name="Path 1550" d="M-1179.963,82.688l-1.06.873a.409.409,0,0,1,.094.314l1.132-.933.094.135.138-.322q-.558-.791-1.118-1.58-.778-1.093-1.577-2.171l-.107.371C-1181.559,80.472-1180.764,81.581-1179.963,82.688Z" transform="translate(-341.026 -171.973)" fill="#AAACAC" stroke="#AAACAC" stroke-width="0.1"/>
    <path id="Path_1551" data-name="Path 1551" d="M-1261.495,118.665c-.184-.336-.365-.672-.552-1.006a.306.306,0,0,0-.39-.172c-.318.109-.473.265-.452.459a.3.3,0,0,0,.031.107c.384.7.767,1.41,1.156,2.112a.291.291,0,0,0,.4.124c.068-.031.133-.07.2-.107.237-.132.281-.274.153-.51C-1261.126,119.335-1261.311,119-1261.495,118.665Zm.062,1.347-1.148-2.1.244-.134,1.148,2.1Z" transform="translate(-264.543 -208.505)" fill="#AAACAC" stroke="#AAACAC" stroke-width="0.1"/>
    <path id="Path_1552" data-name="Path 1552" d="M-1414.227,202.228c-.187-.341-.371-.683-.56-1.023a.312.312,0,0,0-.486-.139c-.072.038-.145.075-.214.119a.29.29,0,0,0-.115.407q.572,1.059,1.156,2.112a.29.29,0,0,0,.406.117c.074-.034.144-.076.215-.116a.313.313,0,0,0,.138-.486C-1413.865,202.887-1414.047,202.558-1414.227,202.228Zm.047,1.319-1.148-2.1.244-.134,1.148,2.1Z" transform="translate(-119.454 -287.85)" fill="#AAACAC" stroke="#AAACAC" stroke-width="0.1"/>
    <path id="Path_1553" data-name="Path 1553" d="M-1390.666,57.9c.021-.069.07-.146.054-.2s-.109-.063-.219-.119c-.013.123-.048.209-.02.259S-1390.731,57.875-1390.666,57.9Z" transform="translate(-142.992 -151.615)" fill="#AAACAC" stroke="#AAACAC" stroke-width="0.1"/>
    <path id="Path_1554" data-name="Path 1554" d="M-1358.836,116.81c.051-.027.069-.118.125-.228-.12-.014-.212-.051-.247-.021a.228.228,0,0,0-.057.2C-1359.007,116.793-1358.879,116.833-1358.836,116.81Z" transform="translate(-173.236 -207.635)" fill="#AAACAC" stroke="#AAACAC" stroke-width="0.1"/>
    <path id="Path_1555" data-name="Path 1555" d="M-1327.308,173.732a.23.23,0,0,0,.057-.2c-.013-.043-.111-.061-.22-.114-.011.123-.045.209-.016.26S-1327.334,173.756-1327.308,173.732Z" transform="translate(-203.175 -261.651)" fill="#AAACAC" stroke="#AAACAC" stroke-width="0.1"/>
    <path id="Path_1556" data-name="Path 1556" d="M-1415.829,330.539a.456.456,0,0,0,.187-.6.455.455,0,0,0-.609-.2.455.455,0,0,0-.191.611A.456.456,0,0,0-1415.829,330.539Zm-.268-.524c.036-.028.126.015.238.035-.051.1-.069.2-.112.212s-.135-.031-.2-.051C-1416.151,330.143-1416.145,330.052-1416.1,330.015Z" transform="translate(-118.647 -410.085)" fill="#AAACAC" stroke="#AAACAC" stroke-width="0.1"/>
    <path id="Path_1557" data-name="Path 1557" d="M-1153,186.082a.362.362,0,0,1-.175.155.434.434,0,0,0,.05.146.448.448,0,0,0,.233.2l.125-.293a.176.176,0,0,1-.09-.064c-.022-.043.031-.125.051-.19.042.013.093.019.135.032l.132-.308a.452.452,0,0,0-.41.01.436.436,0,0,0-.08.057A.384.384,0,0,1-1153,186.082Z" transform="translate(-368.751 -273.327)" fill="#AAACAC" stroke="#AAACAC" stroke-width="0.1"/>
    <path id="Path_1558" data-name="Path 1558" d="M-1139,193.38l-.184.432A.458.458,0,0,0-1139,193.38Z" transform="translate(-382.045 -280.609)" fill="#AAACAC" stroke="#AAACAC" stroke-width="0.1"/>
    <path id="Path_1559" data-name="Path 1559" d="M-1441.945,95.209a.455.455,0,0,0,.184-.6.454.454,0,0,0-.614-.19.457.457,0,0,0-.185.6A.457.457,0,0,0-1441.945,95.209Zm-.283-.527c.065.02.157.021.189.065s0,.129-.011.247c-.109-.047-.21-.061-.224-.1C-1442.294,94.832-1442.247,94.753-1442.228,94.682Z" transform="translate(-93.842 -186.562)" fill="#AAACAC" stroke="#AAACAC" stroke-width="0.1"/>
    <path id="Path_1560" data-name="Path 1560" d="M-1336.722,37.645a.456.456,0,0,0,.2-.613.456.456,0,0,0-.6-.193.454.454,0,0,0-.2.612A.456.456,0,0,0-1336.722,37.645Zm-.3-.591c.1.055.2.077.215.121.015.059-.038.135-.062.2-.064-.025-.156-.033-.184-.08S-1337.037,37.17-1337.018,37.054Z" transform="translate(-193.799 -131.879)" fill="#AAACAC" stroke="#AAACAC" stroke-width="0.1"/>
    <path id="Path_1561" data-name="Path 1561" d="M-1295.624,232.345a.229.229,0,0,0-.064.2c.008.034.135.079.178.058s.072-.116.131-.224C-1295.5,232.357-1295.589,232.317-1295.624,232.345Z" transform="translate(-233.388 -317.61)" fill="#AAACAC" stroke="#AAACAC" stroke-width="0.1"/>
    <path id="Path_1562" data-name="Path 1562" d="M-1252.726,215.392l-.023-.026q-1.261,2.957-2.522,5.914a.324.324,0,0,1-.308.227,3.318,3.318,0,0,1-1.938-.53.238.238,0,0,1-.1-.311q.778-2.672,1.548-5.346l-.455.247-.195.675c-.407,1.412-.811,2.824-1.223,4.234-.129.44-.081.617.317.864a3.721,3.721,0,0,0,1.736.536c.607.041.784-.062,1.02-.615l2.416-5.654A.908.908,0,0,1-1252.726,215.392Z" transform="translate(-269.179 -301.448)" fill="#AAACAC" stroke="#AAACAC" stroke-width="0.1"/>
    <path id="Path_1563" data-name="Path 1563" d="M-1175.5-98.892a2.257,2.257,0,0,1-.05-1.317c.114-.416.011-.542-.422-.631l-5.558-1.136c-.734-.15-.763-.14-.9.606a1.675,1.675,0,0,1-.377.786,10.861,10.861,0,0,0-.888,1.25,17.624,17.624,0,0,0-1.7,4.395l-.452,1.594.282.377.03-.1c.373-1.286.759-2.568,1.148-3.849a.357.357,0,0,1,.2-.2,3.111,3.111,0,0,0,2.11-3.384.266.266,0,0,1,.006-.072l2.715.555-.808,3.954-1.685-.344c-.068-.014-.135-.026-.2-.042-.133-.032-.26-.023-.289.134s.095.2.225.229c.622.125,1.243.253,1.879.383l-.074.36-1.147-.235c-.06-.012-.12-.023-.18-.037-.137-.033-.278-.042-.31.132-.029.158.1.2.227.228.368.073.735.15,1.1.225l.241.049a1.226,1.226,0,0,1-.213.539,4.8,4.8,0,0,0-.454.946l-1.829,4.284.248.352,1.482-3.469q.372-.871.747-1.74l.055.012q0,.308,0,.615,0,7.3,0,14.607a.728.728,0,0,0,.461.74,3.582,3.582,0,0,0,2.083.286c.428-.067.551-.225.6-.65.129-1.087.265-2.172.4-3.258q.264-2.142.529-4.283c.2-1.656.412-3.311.61-4.967.168-1.405.353-2.809.48-4.218A9.556,9.556,0,0,0-1175.5-98.892Zm-8.645,1.343a9.136,9.136,0,0,1,1.68-2.863C-1182.06-99.551-1183.021-97.9-1184.148-97.549Zm7.208-3.1,1.044.213c-.048.235-.1.467-.143.7l-1.044-.213Zm-1.808-.369,1.416.29-.141.693-1.416-.289Zm-2.321.245-1.06-.217c.046-.226.092-.448.141-.688l1.06.217Zm.386.081.142-.693,1.412.289-.142.693Zm1.723.748.523.107c-.036.177-.071.346-.105.516-.122.591-.241,1.181-.366,1.771a.776.776,0,0,1-.678.67Zm3.413,4.8c-.1.944-.194,1.887-.308,2.829-.178,1.482-.369,2.962-.553,4.443q-.27,2.176-.535,4.353c-.2,1.664-.415,3.326-.608,4.991-.027.237-.122.34-.344.363a3.527,3.527,0,0,1-1.8-.253.414.414,0,0,1-.275-.441q.008-7.58,0-15.161c0-.147-.07-.293-.081-.442a3.508,3.508,0,0,1,.026-.457l1.191.243a.712.712,0,0,0,.247.043.852.852,0,0,0,.235-.126c-.057-.076-.1-.2-.173-.22-.378-.1-.763-.165-1.146-.243l-.251-.051.073-.36.848.173.99.2c.137.028.3.075.34-.114s-.117-.217-.257-.245l-1.819-.371c-.023-.379.005-.444.35-.549a1.184,1.184,0,0,0,.859-.977c.151-.742.3-1.484.458-2.242l1.834.375a3.1,3.1,0,0,0,.621,4.024A.293.293,0,0,1-1175.547-95.14Zm.036-.647a2.614,2.614,0,0,1-.431-3.308A9.712,9.712,0,0,1-1175.511-95.787Z" transform="translate(-337.722 0)" fill="#AAACAC" stroke="#AAACAC" stroke-width="0.1"/>
    <path id="Path_1564" data-name="Path 1564" d="M-1227.915,207.022l-.456.25-.12.414.455-.247Z" transform="translate(-297.217 -293.567)" fill="#AAACAC" stroke="#AAACAC" stroke-width="0.1"/>
    <path id="Path_1565" data-name="Path 1565" d="M-1216.4,161.084l.124-.429q-.126-.229-.251-.458l-.117.405.051.093-.092.05-.125.434.355-.194Z" transform="translate(-308.309 -249.09)" fill="#AAACAC" stroke="#AAACAC" stroke-width="0.1"/>
    <path id="Path_1566" data-name="Path 1566" d="M-1152.843,210.2c-.069-.074-.137-.149-.205-.223l-.134.315.023.026a.907.907,0,0,0,.271.214l.117-.274A.33.33,0,0,1-1152.843,210.2Z" transform="translate(-368.747 -296.372)" fill="#AAACAC" stroke="#AAACAC" stroke-width="0.1"/>
    <path id="Path_1567" data-name="Path 1567" d="M-1129.252,154.084l.247.353.138-.324-.247-.352Z" transform="translate(-391.476 -242.979)" fill="#AAACAC" stroke="#AAACAC" stroke-width="0.1"/>
    <path id="Path_1568" data-name="Path 1568" d="M-1208.593,146.063l-.287-.329-.1.342.288.329Z" transform="translate(-315.749 -235.354)" fill="#AAACAC" stroke="#AAACAC" stroke-width="0.1"/>
    <path id="Path_1569" data-name="Path 1569" d="M-1202.761,125.649l-.285-.338-.1.347.284.338Z" transform="translate(-321.291 -215.956)" fill="#AAACAC" stroke="#AAACAC" stroke-width="0.1"/>
    <path id="Path_1570" data-name="Path 1570" d="M-1187.659,72.232l.107-.371-.281-.377-.105.37Z" transform="translate(-335.735 -164.829)" fill="#AAACAC" stroke="#AAACAC" stroke-width="0.1"/>
    <path id="Path_1571" data-name="Path 1571" d="M-1147.248,186.935c.029.035-.008.126-.023.247-.052-.027-.1-.045-.137-.062l-.125.293a.451.451,0,0,0,.385-.029l.034-.022.184-.432a.436.436,0,0,0-.048-.149.444.444,0,0,0-.2-.191l-.132.308A.137.137,0,0,1-1147.248,186.935Z" transform="translate(-374.113 -274.159)" fill="#AAACAC" stroke="#AAACAC" stroke-width="0.1"/>
    <path id="Path_1572" data-name="Path 1572" d="M-1196.914,186.747c0,.026-.006.052-.01.08a.507.507,0,0,0,.057.373A.758.758,0,0,0-1196.914,186.747Z" transform="translate(-327.19 -274.309)" fill="#AAACAC" stroke="#AAACAC" stroke-width="0.1"/>
    <path id="Path_1573" data-name="Path 1573" d="M-1172.134,167.126a.539.539,0,0,0-.143.022q-.094.03-.189.053l.281.334.289-.028a3.339,3.339,0,0,1-.043.41l.414-.341a.41.41,0,0,0-.094-.314l-.236.194Z" transform="translate(-350.431 -255.673)" fill="#AAACAC" stroke="#AAACAC" stroke-width="0.1"/>
    <path id="Path_1574" data-name="Path 1574" d="M-1194.387,168.581l0,0a1.625,1.625,0,0,1-.306-.058.243.243,0,0,0-.141,0l.376.43.368-.036C-1194.191,168.8-1194.289,168.692-1194.387,168.581Z" transform="translate(-329.183 -256.988)" fill="#AAACAC" stroke="#AAACAC" stroke-width="0.1"/>
    <path id="Path_1575" data-name="Path 1575" d="M-1176.451,189.137c-.035,0-.069.008-.1.013l.3.341a1.845,1.845,0,0,1,.411.012l-.336-.378C-1176.273,189.125-1176.363,189.128-1176.451,189.137Z" transform="translate(-346.547 -276.568)" fill="#AAACAC" stroke="#AAACAC" stroke-width="0.1"/>
    <path id="Path_1576" data-name="Path 1576" d="M-1153.286,188.342a.363.363,0,0,0,.175-.155.383.383,0,0,0-.03-.258A.459.459,0,0,0-1153.286,188.342Z" transform="translate(-368.642 -275.432)" fill="#AAACAC" stroke="#AAACAC" stroke-width="0.1"/>
    <path id="Path_1577" data-name="Path 1577" d="M-1060.257,191.934a3.172,3.172,0,0,1-1.252-.629.426.426,0,0,0-.1-.048c-.374-.151-.591-.051-.681.341a.372.372,0,0,1-.262.295.4.4,0,0,0-.219.278.445.445,0,0,0,.177.311,1.714,1.714,0,0,0,.361.133c.212.095.424.194.627.306s.372.23.558.346c.3.031.467-.086.553-.421.033-.128.061-.224.216-.281.113-.041.26-.192.258-.292A.43.43,0,0,0-1060.257,191.934Zm-.632.958c-.519-.146-.815-.7-1.4-.675.347-.1.29-.418.4-.666.5.156.807.686,1.389.669C-1060.823,192.333-1060.817,192.622-1060.889,192.892Z" transform="translate(-454.618 -278.529)" fill="#AAACAC" stroke="#AAACAC" stroke-width="0.1"/>
  </g>
</svg>
