<svg xmlns="http://www.w3.org/2000/svg" width="187.491" height="75.96" viewBox="0 0 187.491 75.96"><g transform="translate(-67.656 -39.192)"><g transform="translate(67.656 39.192)"><circle cx="36.733" cy="36.733" r="36.733" fill="#00ac8c"/><g transform="translate(29.217 9.986)"><path d="M215.21,81.412c-.617-1.114-3.272.653-2.936-1.881a2.74,2.74,0,0,1,2.927-2.6c2.08.087,2.7-1.233,3.139-2.77.876-3.066,3.02-5.706,2.542-9.261-.268-2,1.589-1.606,2.837-1.278,4.208,1.106,7.124,5.8,5.864,10-.7,2.345-.189,3.015,2.084,2.9a6.661,6.661,0,0,1,2.316.28c.888.281,1.736.874,1.549,1.947-.178,1.02-1.228.964-1.91.822-6.146-1.27-8.012,2.661-9.531,7.442-1.572,4.951-3.59,9.759-5.273,14.678-.481,1.4-1.353,2.843-.544,5.143,5.881-4.693,11.489-9.251,14.483-16.058,2.347-5.335,4.983-10.324,9.792-13.815,4.483-3.254,8.564-2.863,12.621,1.071,3.133,3.038,3.445,7.6.591,11.749A18.69,18.69,0,0,1,244.468,97.6c-2.345.57-3.775,3.735-2.812,6.4,1.045,2.893,3.29,2.743,5.415,1.564,8.048-4.468,13.2-11.6,17.337-19.549.53-1.019.055-2.557.061-3.854.023-4.816,2.527-7.194,7.276-7.13,1.647.022,2.208.536,2.345,2.227a58.709,58.709,0,0,0,2.192,12.611c5.535-4.529,10.8-8.914,16.174-13.169.914-.724,1.891-2.883,3.34-1.227,1.162,1.329.219,3.053-.989,4.159C290.578,83.5,286.289,87.3,282,91.1c-4.82,4.264-4.832,4.25-2.224,10.283,2.741,6.341,3.177,6.392,7.49.872a151.744,151.744,0,0,0,9.908-14.967c.433-.716.645-2.028,1.764-1.7,1.213.352,1.135,1.634.958,2.67a11.086,11.086,0,0,1-.775,2.6,46.185,46.185,0,0,1-11.44,16.12c-5.853,5.2-12.638,4.388-16.994-2.153-1.316-1.977-2.122-2.125-3.65-.451a51.181,51.181,0,0,1-4.225,4.054c-.754.656-1.329,2.387-2.741,1.043-1.132-1.079-.818-2.422.078-3.532a20.539,20.539,0,0,1,3.4-3.757c3.706-2.758,4.485-5.973,1.914-10-1.2.012-1.256,1.315-1.749,2.077a55.764,55.764,0,0,1-10.217,11.73c-8.759,7.667-17.5,2.923-21.891-5.934a69.062,69.062,0,0,1-10.065,8.428c-3.587,2.3-6.732,1.749-10.041-.744-3.131-2.358-3.665-5.215-2.506-8.615C211,93.216,213.116,87.353,215.21,81.412Zm28.447,12.119a11.181,11.181,0,0,0,10.355-11.863C248.713,84.235,245.907,88.529,243.657,93.531Z" transform="translate(-141.72 -56.877)" fill="#090909"/><path d="M120.4,100.917c9.35.313,18.109-2.3,26.328,2.014-9.274.5-18.247,2.48-27.281,4.075a8.343,8.343,0,0,1-5.246-1.21c-4.126-2.173-4.762-4.673-1.943-8.433,4.465-5.957,9.848-11.081,15.16-16.252,6.527-6.352,13.164-12.591,19.732-18.9,1.2-1.15,2.289-2.405,3.513-3.7-1.767-1.169-2.989.038-4.191.426-5.447,1.755-10.863,3.6-16.633,3.965a9.056,9.056,0,0,1-5.321-.8,3.631,3.631,0,0,1-2.031-4.217c.51-2.3,2.134-1.65,3.676-1.461,7.226.886,14.255-.527,21.254-2.017,3.446-.733,6.724-1.341,9.042,2.26,2.135,3.316,1.774,7.019-1.225,10.719-5.925,7.312-13.074,13.4-19.919,19.79C130.576,91.6,125.786,95.958,120.4,100.917Z" transform="translate(-110.533 -53.847)" fill="#080808"/><path d="M181.338,100.21c-2.727,0-5.468.173-8.176-.059a3.7,3.7,0,0,1-3.654-3.46c-.012-2.17,2.226-1.737,3.648-1.945,3.6-.527,7.209-.94,10.821-1.35a6.089,6.089,0,0,1,6.519,4.861c.329,1.536-.171,2.223-1.751,2.084-.129-.012-.26.009-.39.009h-7.017Z" transform="translate(-129.321 -66.435)" fill="#090909"/></g></g><g transform="translate(161.641 107.445)"><path d="M210.852,140.143V145.3h-.679v-3.847l-1.714,3.847h-.477l-1.723-3.854V145.3h-.678v-5.158h.73l1.909,4.264,1.908-4.264Z" transform="translate(-205.581 -139.606)"/><path d="M214.882,142.615a1.843,1.843,0,0,1,.7-.735,1.914,1.914,0,0,1,.988-.261,1.812,1.812,0,0,1,.931.232,1.532,1.532,0,0,1,.589.581v-.745h.686v4.085h-.686v-.76a1.608,1.608,0,0,1-.6.592,1.8,1.8,0,0,1-.928.235,1.854,1.854,0,0,1-.984-.268,1.887,1.887,0,0,1-.694-.753,2.348,2.348,0,0,1-.254-1.1A2.292,2.292,0,0,1,214.882,142.615Zm3.019.3a1.307,1.307,0,0,0-.5-.526,1.428,1.428,0,0,0-1.39,0,1.3,1.3,0,0,0-.5.522,1.663,1.663,0,0,0-.186.8,1.705,1.705,0,0,0,.186.817,1.319,1.319,0,0,0,.5.529,1.349,1.349,0,0,0,.694.183,1.366,1.366,0,0,0,.7-.183,1.306,1.306,0,0,0,.5-.529,1.687,1.687,0,0,0,.186-.809A1.66,1.66,0,0,0,217.9,142.917Z" transform="translate(-208.463 -140.076)"/><path d="M225.594,142.059a1.737,1.737,0,0,1,.462,1.3v2.407h-.671v-2.311a1.316,1.316,0,0,0-.306-.936,1.092,1.092,0,0,0-.835-.324,1.119,1.119,0,0,0-.854.335,1.372,1.372,0,0,0-.317.977v2.258H222.4v-4.085h.678v.581a1.352,1.352,0,0,1,.548-.485,1.706,1.706,0,0,1,.765-.17A1.656,1.656,0,0,1,225.594,142.059Z" transform="translate(-210.938 -140.073)"/><path d="M233,141.718V145.8h-.679v-.6a1.314,1.314,0,0,1-.54.489,1.662,1.662,0,0,1-.764.176,1.841,1.841,0,0,1-.857-.2,1.442,1.442,0,0,1-.6-.593,1.955,1.955,0,0,1-.22-.961v-2.393h.671v2.3a1.3,1.3,0,0,0,.306.929,1.094,1.094,0,0,0,.835.324,1.114,1.114,0,0,0,.857-.336,1.376,1.376,0,0,0,.313-.976v-2.244Z" transform="translate(-213.151 -140.108)"/><path d="M237.873,141.524h-.857v3.526h-.678v-3.526h-.529v-.559h.529v-.291a1.282,1.282,0,0,1,.354-1,1.681,1.681,0,0,1,1.137-.317v.566a.9.9,0,0,0-.63.175.777.777,0,0,0-.183.578v.291h.857Z" transform="translate(-215.211 -139.355)"/><path d="M239.88,142.615a1.844,1.844,0,0,1,.7-.735,1.914,1.914,0,0,1,.988-.261,1.812,1.812,0,0,1,.931.232,1.532,1.532,0,0,1,.589.581v-.745h.686v4.085h-.686v-.76a1.609,1.609,0,0,1-.6.592,1.8,1.8,0,0,1-.928.235,1.854,1.854,0,0,1-.984-.268,1.887,1.887,0,0,1-.694-.753,2.348,2.348,0,0,1-.253-1.1A2.292,2.292,0,0,1,239.88,142.615Zm3.019.3a1.31,1.31,0,0,0-.5-.526,1.429,1.429,0,0,0-1.391,0,1.3,1.3,0,0,0-.5.522,1.663,1.663,0,0,0-.186.8,1.705,1.705,0,0,0,.186.817,1.319,1.319,0,0,0,.5.529,1.351,1.351,0,0,0,.694.183,1.371,1.371,0,0,0,.7-.183,1.309,1.309,0,0,0,.5-.529,1.687,1.687,0,0,0,.186-.809A1.659,1.659,0,0,0,242.9,142.917Z" transform="translate(-216.427 -140.076)"/><path d="M247.275,142.615a1.829,1.829,0,0,1,.7-.735,2.237,2.237,0,0,1,2.274.1A1.728,1.728,0,0,1,250.9,143h-.73a1.047,1.047,0,0,0-.406-.589,1.253,1.253,0,0,0-.75-.217,1.2,1.2,0,0,0-.939.4,1.636,1.636,0,0,0-.358,1.13,1.664,1.664,0,0,0,.358,1.141,1.2,1.2,0,0,0,.939.4,1.263,1.263,0,0,0,.745-.209,1.055,1.055,0,0,0,.41-.6h.73a1.8,1.8,0,0,1-.656,1,1.969,1.969,0,0,1-1.231.377,2.02,2.02,0,0,1-1.032-.262,1.811,1.811,0,0,1-.7-.737,2.351,2.351,0,0,1-.253-1.118A2.31,2.31,0,0,1,247.275,142.615Z" transform="translate(-218.783 -140.076)"/><path d="M254.683,141.8V144.2a.573.573,0,0,0,.127.421.624.624,0,0,0,.44.123h.5v.574h-.611a1.212,1.212,0,0,1-.85-.261,1.119,1.119,0,0,1-.283-.857V141.8h-.529v-.559h.529v-1.029h.678v1.029h1.066v.559Z" transform="translate(-220.839 -139.627)"/><path d="M261.622,141.718V145.8h-.678v-.6a1.323,1.323,0,0,1-.54.489,1.667,1.667,0,0,1-.765.176,1.841,1.841,0,0,1-.857-.2,1.446,1.446,0,0,1-.6-.593,1.955,1.955,0,0,1-.219-.961v-2.393h.671v2.3a1.3,1.3,0,0,0,.306.929,1.094,1.094,0,0,0,.835.324,1.114,1.114,0,0,0,.857-.336,1.376,1.376,0,0,0,.313-.976v-2.244Z" transform="translate(-222.269 -140.108)"/><path d="M266.207,141.8a1.574,1.574,0,0,1,.809-.194v.7h-.179q-1.141,0-1.141,1.237v2.221h-.678v-4.085h.678v.664A1.3,1.3,0,0,1,266.207,141.8Z" transform="translate(-224.516 -140.073)"/><path d="M269.068,140.178a.462.462,0,0,1,.328-.79.424.424,0,0,1,.317.134.477.477,0,0,1,0,.656.425.425,0,0,1-.317.134A.447.447,0,0,1,269.068,140.178Zm.656.8v4.085h-.679v-4.085Z" transform="translate(-225.764 -139.366)"/><path d="M274.988,142.059a1.737,1.737,0,0,1,.462,1.3v2.407h-.671v-2.311a1.319,1.319,0,0,0-.305-.936,1.094,1.094,0,0,0-.835-.324,1.118,1.118,0,0,0-.854.335,1.372,1.372,0,0,0-.317.977v2.258h-.679v-4.085h.679v.581a1.352,1.352,0,0,1,.548-.485,1.705,1.705,0,0,1,.764-.17A1.657,1.657,0,0,1,274.988,142.059Z" transform="translate(-226.674 -140.073)"/><path d="M281.286,141.851a1.528,1.528,0,0,1,.592.581v-.745h.686v4.174a2.045,2.045,0,0,1-.239,1,1.7,1.7,0,0,1-.682.682,2.091,2.091,0,0,1-1.032.245,2.263,2.263,0,0,1-1.342-.38,1.485,1.485,0,0,1-.634-1.036h.671a1.07,1.07,0,0,0,.463.6,1.508,1.508,0,0,0,.842.228,1.242,1.242,0,0,0,.913-.351,1.323,1.323,0,0,0,.354-.984V145a1.624,1.624,0,0,1-.6.6,1.749,1.749,0,0,1-.924.239,1.859,1.859,0,0,1-1.685-1.021,2.348,2.348,0,0,1-.253-1.1,2.292,2.292,0,0,1,.253-1.1,1.844,1.844,0,0,1,.7-.735,1.914,1.914,0,0,1,.988-.261A1.822,1.822,0,0,1,281.286,141.851Zm.406,1.066a1.31,1.31,0,0,0-.5-.526,1.429,1.429,0,0,0-1.391,0,1.3,1.3,0,0,0-.5.522,1.664,1.664,0,0,0-.186.8,1.706,1.706,0,0,0,.186.817,1.319,1.319,0,0,0,.5.529,1.349,1.349,0,0,0,.694.183,1.371,1.371,0,0,0,.7-.183,1.308,1.308,0,0,0,.5-.529,1.687,1.687,0,0,0,.186-.809A1.659,1.659,0,0,0,281.692,142.917Z" transform="translate(-228.786 -140.076)"/><path d="M292.957,145.235l-.679-.686a2.582,2.582,0,0,1-.812.585,2.415,2.415,0,0,1-.977.189,2.214,2.214,0,0,1-.951-.194,1.487,1.487,0,0,1-.641-.552,1.519,1.519,0,0,1-.228-.835,1.555,1.555,0,0,1,.309-.958,2.046,2.046,0,0,1,.913-.652,2.24,2.24,0,0,1-.343-.521,1.3,1.3,0,0,1-.1-.522,1.089,1.089,0,0,1,.168-.594,1.129,1.129,0,0,1,.48-.414,1.676,1.676,0,0,1,.724-.149,1.5,1.5,0,0,1,.7.156,1.037,1.037,0,0,1,.447.437,1.184,1.184,0,0,1,.134.622h-.678a.622.622,0,0,0-.172-.481.633.633,0,0,0-.462-.175.684.684,0,0,0-.481.168.558.558,0,0,0-.183.429.835.835,0,0,0,.123.432,3.071,3.071,0,0,0,.414.514l1.551,1.558.134-.209.506-.85h.731l-.611,1.06q-.127.223-.3.469l1.17,1.171Zm-1.741-.648a2,2,0,0,0,.615-.485l-1.528-1.535a1.233,1.233,0,0,0-.954,1.155.952.952,0,0,0,.316.731,1.173,1.173,0,0,0,.824.29A1.661,1.661,0,0,0,291.216,144.587Z" transform="translate(-232.051 -139.54)"/><path d="M300.792,140.635v1.737h1.893v.559h-1.893v1.789h2.117v.559h-2.8v-5.2h2.8v.559Z" transform="translate(-235.697 -139.585)"/><path d="M307.634,145.8l-.969-1.521-.932,1.521h-.709l1.32-2.028-1.32-2.057h.768l.969,1.513.925-1.513h.708l-1.312,2.02L308.4,145.8Z" transform="translate(-237.262 -140.108)"/><path d="M312.244,141.854a1.793,1.793,0,0,1,.928-.235,1.913,1.913,0,0,1,.987.261,1.843,1.843,0,0,1,.7.735,2.291,2.291,0,0,1,.254,1.1,2.347,2.347,0,0,1-.254,1.1,1.859,1.859,0,0,1-1.684,1.021,1.784,1.784,0,0,1-.921-.235,1.686,1.686,0,0,1-.608-.585v2.691h-.679v-6.023h.679v.752A1.619,1.619,0,0,1,312.244,141.854Zm1.986,1.055a1.29,1.29,0,0,0-.5-.522,1.393,1.393,0,0,0-.7-.179,1.337,1.337,0,0,0-1.2.711,1.8,1.8,0,0,0,0,1.611,1.336,1.336,0,0,0,.507.529,1.354,1.354,0,0,0,.69.183,1.369,1.369,0,0,0,.7-.183,1.309,1.309,0,0,0,.5-.529,1.7,1.7,0,0,0,.187-.817A1.656,1.656,0,0,0,314.23,142.909Z" transform="translate(-239.154 -140.076)"/><path d="M318.985,145.577a1.844,1.844,0,0,1-.73-.741,2.268,2.268,0,0,1-.265-1.114,2.211,2.211,0,0,1,.272-1.107,1.877,1.877,0,0,1,.742-.739,2.279,2.279,0,0,1,2.1,0,1.889,1.889,0,0,1,.742.735,2.206,2.206,0,0,1,.272,1.111,2.182,2.182,0,0,1-.279,1.114,1.931,1.931,0,0,1-.757.741,2.162,2.162,0,0,1-1.058.262A2.084,2.084,0,0,1,318.985,145.577Zm1.725-.506a1.306,1.306,0,0,0,.519-.514,1.65,1.65,0,0,0,.2-.835,1.672,1.672,0,0,0-.194-.835,1.269,1.269,0,0,0-.507-.51,1.465,1.465,0,0,0-1.361,0,1.231,1.231,0,0,0-.5.51,1.732,1.732,0,0,0-.187.835,1.771,1.771,0,0,0,.183.842,1.215,1.215,0,0,0,.488.51,1.372,1.372,0,0,0,.671.168A1.428,1.428,0,0,0,320.71,145.071Z" transform="translate(-241.392 -140.076)"/><path d="M326.552,141.8a1.575,1.575,0,0,1,.809-.194v.7h-.179q-1.141,0-1.141,1.237v2.221h-.679v-4.085h.679v.664A1.3,1.3,0,0,1,326.552,141.8Z" transform="translate(-243.741 -140.073)"/><path d="M330.092,141.8V144.2a.573.573,0,0,0,.127.421.624.624,0,0,0,.44.123h.5v.574h-.611a1.214,1.214,0,0,1-.85-.261,1.119,1.119,0,0,1-.284-.857V141.8h-.529v-.559h.529v-1.029h.678v1.029h1.066v.559Z" transform="translate(-244.863 -139.627)"/><path d="M333.925,145.678a1.417,1.417,0,0,1-.589-.447,1.193,1.193,0,0,1-.238-.66h.7a.688.688,0,0,0,.287.5,1.1,1.1,0,0,0,.675.194.981.981,0,0,0,.611-.172.522.522,0,0,0,.224-.432.425.425,0,0,0-.238-.4,3.332,3.332,0,0,0-.738-.258,5.4,5.4,0,0,1-.742-.242,1.32,1.32,0,0,1-.491-.365.952.952,0,0,1-.205-.638.965.965,0,0,1,.186-.574,1.254,1.254,0,0,1,.529-.414,1.9,1.9,0,0,1,.783-.153,1.671,1.671,0,0,1,1.1.343,1.235,1.235,0,0,1,.447.939h-.678a.7.7,0,0,0-.258-.514,1.135,1.135,0,0,0-1.212-.037.483.483,0,0,0-.216.41.449.449,0,0,0,.13.331.934.934,0,0,0,.328.209q.2.078.548.176a5.842,5.842,0,0,1,.715.234,1.25,1.25,0,0,1,.474.347.927.927,0,0,1,.205.6,1.034,1.034,0,0,1-.186.6,1.242,1.242,0,0,1-.526.421,1.885,1.885,0,0,1-.779.153A2.107,2.107,0,0,1,333.925,145.678Z" transform="translate(-246.205 -140.076)"/></g></g></svg>