<svg xmlns="http://www.w3.org/2000/svg" width="38.034" height="26.14" viewBox="0 0 38.034 26.14">
  <g id="Group_2211" data-name="Group 2211" transform="translate(-14.983 -20.93)">
    <path id="Path_1148" data-name="Path 1148" d="M34.88,30.788l12.816,8.1V22.34Z" transform="translate(5.321 3.408)" fill="#fff"/>
    <path id="Path_1149" data-name="Path 1149" d="M13,22.34V38.891l12.828-8.1Z" transform="translate(1.983 3.408)" fill="#fff"/>
    <path id="Path_1150" data-name="Path 1150" d="M48.651,18.16H15.365a2.305,2.305,0,0,0-2.305,2.017L32.008,32.659,50.956,20.177A2.305,2.305,0,0,0,48.651,18.16Z" transform="translate(1.992 2.77)" fill="#fff"/>
    <path id="Path_1151" data-name="Path 1151" d="M36.04,30.91l-3.365,2.224a1.153,1.153,0,0,1-1.314,0L27.972,30.91l-14.9,9.439a2.305,2.305,0,0,0,2.305,2.005H48.649a2.305,2.305,0,0,0,2.305-2.005Z" transform="translate(1.994 4.715)" fill="#fff"/>
  </g>
</svg>
