<svg xmlns="http://www.w3.org/2000/svg" width="34.188" height="24.904" viewBox="0 0 34.188 24.904">
  <g id="Group_2206" data-name="Group 2206" transform="translate(370.365 -52.165)">
    <g id="Group_2195" data-name="Group 2195" transform="translate(-350.602 52.315)">
      <g id="Group_2194" data-name="Group 2194" transform="translate(0)">
        <g id="Group_2191" data-name="Group 2191">
          <path id="Path_1578" data-name="Path 1578" d="M-256.824,60.578a.233.233,0,0,1-.009-.251c.113-.258.22-.524.312-.753a.251.251,0,0,0,.009-.206,1.116,1.116,0,0,1-.117-.783l.012-.065-.507-.21c-.227-.094-.455-.188-.682-.283-.151-.064-.173-.12-.111-.273.031-.076.063-.152.095-.228.064-.152.127-.3.186-.459a.328.328,0,0,0-.005-.235.955.955,0,0,1-.066-.628q.49-2.1.986-4.2a.406.406,0,0,1,.093-.188,28.061,28.061,0,0,1,3.024-2.659,4.59,4.59,0,0,1,1.317-.755.366.366,0,0,0,.251-.224,1.344,1.344,0,0,1,1.252-.86,1.494,1.494,0,0,1,.179.011c.081.01.16.027.244.046l.118.025.245.1a.1.1,0,0,0,.013.019,5.18,5.18,0,0,0,2.912,1.82,5.589,5.589,0,0,0,1.163.131,4.4,4.4,0,0,0,.579-.038l.264.109.015.012a.472.472,0,0,0,.067.048,1.313,1.313,0,0,1,.679,1.6,1,1,0,0,0,.043.655,9.446,9.446,0,0,1,.334,1.379,26.622,26.622,0,0,1,.256,3.93.428.428,0,0,1-.069.212q-1.132,1.838-2.272,3.671a.974.974,0,0,1-.478.393.377.377,0,0,0-.187.18c-.087.191-.167.389-.245.58l-.048.118c-.042.1-.1.115-.14.115l-.03,0a.561.561,0,0,1-.13-.042l-.833-.344-.321-.133-.037.056a1.1,1.1,0,0,1-.634.471.25.25,0,0,0-.138.151c-.106.247-.209.49-.306.74-.044.114-.1.169-.189.185Zm3.81,1.247,3.205,1.326.277-.668-3.205-1.326Zm8.162-10.118c-1.145.034-2.4.066-3.837.1a.267.267,0,0,0-.271.191q-1.557,3.774-3.12,7.546l-.543,1.312.1.052a.469.469,0,0,0,.045.022l.243.1q1.293.535,2.587,1.069a.831.831,0,0,0,.216.059.841.841,0,0,0,.1.006.735.735,0,0,0,.692-.534l3.191-7.711a.767.767,0,0,1,.074-.15.126.126,0,0,1,.1-.063.178.178,0,0,1,.075.02.128.128,0,0,1,.076.169.907.907,0,0,1-.044.119l-2.771,6.7.055.054a.127.127,0,0,0,.044.033l.169.071c.2.085.4.17.608.253a.725.725,0,0,0,.274.057.608.608,0,0,0,.526-.32l.019-.031q1.1-1.776,2.2-3.553a.4.4,0,0,0,.06-.206,27.476,27.476,0,0,0-.3-4.083,7.128,7.128,0,0,0-.193-.789c-.027-.095-.054-.189-.08-.284a.265.265,0,0,0-.29-.207h-.018Zm-3.449,9.917,1.095.453.24-.58-1.095-.453Zm-8.216-1.254,3.21,1.328.275-.664-3.21-1.328Zm3.339-9.936a.186.186,0,0,1,.059.011.122.122,0,0,1,.1.145.764.764,0,0,1-.059.182l-3.184,7.7a.735.735,0,0,0,.443,1.074l2.915,1.207.568-1.371q1.556-3.76,3.114-7.518a.248.248,0,0,0-.061-.3c-.98-1.024-1.8-1.878-2.635-2.769a.331.331,0,0,0-.242-.126.314.314,0,0,0-.158.047l-.232.13a6.785,6.785,0,0,0-.67.406,27.544,27.544,0,0,0-3.126,2.71.426.426,0,0,0-.106.2c-.082.341-.161.682-.24,1.023l-.324,1.387q-.2.848-.4,1.7a.579.579,0,0,0,.28.68c.208.1.418.183.641.272l.285.116.076.032,2.788-6.738a.789.789,0,0,1,.058-.124A.125.125,0,0,1-253.178,50.434Zm-4.419,7.343,1.094.453.241-.582-1.094-.453Zm12.489-7.86a.294.294,0,0,0-.137.038c-.292.152-.587.3-.882.446l-.348.173-1.5.755.024.159,1.008-.026c.689-.018,1.379-.036,2.069-.057a.276.276,0,0,0,.219-.113,1.049,1.049,0,0,0-.28-1.307A.278.278,0,0,0-245.109,49.917Zm-4.839-1.637,1.054,3.171,2.986-1.5-.034-.155a5.669,5.669,0,0,1-3.871-1.6Zm-.851-.668a1.057,1.057,0,0,0-.963.667.244.244,0,0,0,.051.305c.3.309.6.622.9.934l.335.352.9.941.1-.084.007-.074-.132-.4q-.415-1.246-.834-2.49a.245.245,0,0,0-.177-.137A1.057,1.057,0,0,0-250.8,47.612Z" transform="translate(257.951 -47.315)" fill="#fff" stroke="#fff" stroke-width="0.3"/>
        </g>
        <g id="Group_2192" data-name="Group 2192" transform="translate(2.185 9.373)">
          <path id="Path_1579" data-name="Path 1579" d="M-244.491,106.383a.172.172,0,0,1-.065-.015.124.124,0,0,1-.079-.084.229.229,0,0,1,.062-.189q.406-.507.814-1.012l.239-.3c.083-.1.166-.208.253-.308a.129.129,0,0,1,.1-.052.188.188,0,0,1,.1.033c.061.039.073.116.032.207l-.441.549q-.429.534-.858,1.068C-244.411,106.372-244.46,106.383-244.491,106.383Z" transform="translate(244.639 -104.425)" fill="#fff" stroke="#fff" stroke-width="0.3"/>
        </g>
        <g id="Group_2193" data-name="Group 2193" transform="translate(8.689 11.581)">
          <path id="Path_1580" data-name="Path 1580" d="M-204.847,120.309c-.035,0-.088-.042-.158-.116a.486.486,0,0,1,0-.091q.073-1.025.151-2.049c.008-.11.062-.177.144-.177h.019a.139.139,0,0,1,.135.15c-.038.58-.08,1.159-.122,1.738l-.03.413a.178.178,0,0,1-.007.032l-.01.04-.015.009a.29.29,0,0,1-.106.05Z" transform="translate(205.006 -117.876)" fill="#fff" stroke="#fff" stroke-width="0.3"/>
        </g>
      </g>
    </g>
    <g id="Group_2196" data-name="Group 2196" transform="translate(-370.215 54.005)">
      <path id="Path_1581" data-name="Path 1581" d="M-360.079,91.282a.943.943,0,0,1-.207-.183c-.165-.269-.311-.55-.473-.821a.314.314,0,0,0-.165-.14A1.68,1.68,0,0,1-362,89.27q-.96-1.711-1.929-3.418l-.094-.166-.035.015c.117.318.238.634.35.954.472,1.342.946,2.682,1.4,4.029a1.713,1.713,0,0,1,0,.506.453.453,0,0,0,.025.194c.093.184.2.362.3.54a.19.19,0,0,1-.086.3q-.549.306-1.094.618a.189.189,0,0,1-.292-.08q-.1-.176-.2-.353c-.111-.2-.2-.4-.467-.472a.735.735,0,0,1-.333-.33c-1.275-2.068-2.543-4.14-3.627-6.318a24.64,24.64,0,0,1-1.66-4.627,12.7,12.7,0,0,1-.473-2.635,1.742,1.742,0,0,1,.537-1.5.5.5,0,0,0,.11-.7,1.765,1.765,0,0,1,.334-2.04.838.838,0,0,1,.905-.3,3.088,3.088,0,0,0,2.348-.3,6,6,0,0,0,2.313-1.668,1.468,1.468,0,0,0,.3-.553c.227-.943.932-1.075,1.684-.925a1.8,1.8,0,0,1,1.219.934c.076.131.153.171.29.128.049-.015.1-.012.152-.028a1.986,1.986,0,0,1,1.884.464,15.426,15.426,0,0,1,2.327,2.194,29.523,29.523,0,0,1,2.019,2.46c.689.977,1.3,2.011,1.893,3.053.736,1.3,1.414,2.634,2.117,3.953a.987.987,0,0,1,.147.792.273.273,0,0,0,.046.177c.1.193.211.384.322.573a.206.206,0,0,1-.089.332q-.535.291-1.061.6c-.151.088-.25.06-.327-.1-.057-.115-.128-.224-.189-.338a.56.56,0,0,0-.389-.352.842.842,0,0,1-.376-.311c-1.117-1.339-2.227-2.683-3.368-4.061l.122.215c.65,1.15,1.3,2.3,1.951,3.45a1.711,1.711,0,0,1,.2,1.391.289.289,0,0,0,.034.195c.143.267.3.526.441.794a1.612,1.612,0,0,1,.091.3Zm-5.527-15.775.389.688q.337.6.675,1.195c.056.1.085.2-.035.266s-.191-.014-.244-.113c-.021-.04-.044-.079-.067-.118-.32-.567-.642-1.132-.958-1.7a.2.2,0,0,0-.239-.127,3.388,3.388,0,0,1-1.943-.269.162.162,0,0,0-.229.046c-.47.554-.95,1.1-1.422,1.653a2.088,2.088,0,0,0-.177.3,5.606,5.606,0,0,1,1.49,1.014,11.466,11.466,0,0,1,2.134,2.775q1.583,2.79,3.157,5.587l.118.208a2.179,2.179,0,0,0,.81-1.564,4.9,4.9,0,0,0-.323-1.966.271.271,0,0,1,.151-.386c1.272-.71,2.536-1.432,3.807-2.144.595-.333.426-.364.893.148a4.107,4.107,0,0,0,1.566,1.161,2.142,2.142,0,0,0,1.54-.013l-.123-.217c-.843-1.492-1.691-2.981-2.526-4.478-.4-.725-.816-1.449-1.17-2.2a8.3,8.3,0,0,1-.838-3.033c-.019-.306,0-.613,0-.946a2.883,2.883,0,0,0-.36.016c-.7.116-1.394.241-2.093.355-.13.021-.18.067-.2.2a3.32,3.32,0,0,1-.736,1.737.26.26,0,0,0-.026.352c.343.591.675,1.188,1.01,1.782.055.1.087.2-.035.266s-.191-.013-.245-.112c-.072-.13-.146-.258-.218-.387l-.843-1.493A7.77,7.77,0,0,1-365.606,75.507Zm3.455,7.759c.02.076.041.137.053.2.094.491.225.979.272,1.474a2.5,2.5,0,0,1-.837,2.15.182.182,0,0,0-.044.273c.338.586.666,1.177,1,1.765a1.258,1.258,0,0,0,1.869.51l5.266-2.974c.309-.174.62-.343.924-.525a1.211,1.211,0,0,0,.479-1.564c-.353-.687-.742-1.355-1.126-2.025a.229.229,0,0,0-.2-.051,2.529,2.529,0,0,1-2.312-.387,12.334,12.334,0,0,1-1.147-1.023.189.189,0,0,0-.275-.039c-.512.3-1.03.585-1.546.877Zm3.305-11.836c-.009.088-.017.144-.02.2a7.25,7.25,0,0,0,.6,2.966,33.64,33.64,0,0,0,2,3.788.683.683,0,0,0,.067.094c.667.851,1.323,1.71,2,2.55.932,1.149,1.882,2.284,2.825,3.424a.323.323,0,0,0,.477.083c.215-.118.427-.239.64-.361.335-.191.407-.4.231-.734-.55-1.057-1.081-2.125-1.667-3.162-.72-1.272-1.441-2.547-2.247-3.765a22.562,22.562,0,0,0-3.388-3.894A8.221,8.221,0,0,0-358.846,71.43ZM-369.9,77.672a3.363,3.363,0,0,0,0,.36c.047.4.078.808.157,1.2a23.979,23.979,0,0,0,2.621,7.189c.965,1.7,1.977,3.365,2.971,5.045a.45.45,0,0,0,.661.183c.2-.106.393-.22.59-.331.361-.2.386-.269.244-.664-.689-1.92-1.375-3.841-2.071-5.758a14,14,0,0,0-.633-1.554c-.361-.712-.776-1.4-1.171-2.091A11.188,11.188,0,0,0-368.57,78.6,5.076,5.076,0,0,0-369.9,77.672Zm16.9,8.351a5.252,5.252,0,0,1-.569.438c-1.128.648-2.256,1.3-3.4,1.92a35.953,35.953,0,0,1-3.433,1.854l.366.648,7.413-4.187Zm-7.748-14.862a1.461,1.461,0,0,0-1.466-.879.75.75,0,0,0-.81.648q-.453,1.618-.9,3.237c-.017.06-.028.121-.043.181l.033.027.866-.669-.212-.374c-.056-.1-.085-.2.027-.272s.2.014.261.116c.046.08.091.16.148.262a3.11,3.11,0,0,0,.727-1.754.312.312,0,0,1,.309-.336C-361.456,71.3-361.1,71.225-360.748,71.161Zm-4,3.669-.016-.058c-.055-.017-.109-.035-.164-.05l-3.259-.894a.74.74,0,0,0-.923.318,1.448,1.448,0,0,0-.036,1.747c.242-.276.489-.545.721-.827a.293.293,0,0,1,.417-.088,3.134,3.134,0,0,0,1.608.324c.091,0,.182-.024.292-.039-.06-.106-.1-.185-.149-.262-.057-.1-.092-.2.025-.269s.2.015.257.119a2.18,2.18,0,0,0,.156.266.158.158,0,0,0,.135.053C-365.371,75.064-365.061,74.946-364.75,74.83Zm-2.043-1.019,2.37.672.667-2.4A7.086,7.086,0,0,1-366.793,73.811Zm16.3,11.5.892-.5-.262-.465-.892.5Zm-12.722,7.175.893-.5-.264-.467-.893.5Z" transform="translate(370.215 -69.974)" fill="#fff" stroke="#fff" stroke-width="0.3"/>
    </g>
  </g>
</svg>
