<svg xmlns="http://www.w3.org/2000/svg" width="31.414" height="34.899" viewBox="0 0 31.414 34.899"><g transform="translate(566.457 -247.479)"><path d="M-564.272,536.134c-.071-.027-.141-.061-.215-.081a2.635,2.635,0,0,1-1.956-2.8,2.632,2.632,0,0,1,2.5-2.358c.147-.008.3-.006.443-.006h22.012c.136,0,.273,0,.409-.007a.863.863,0,0,0,.8-.864.858.858,0,0,0-.771-.852,3.811,3.811,0,0,0-.408-.012c-2.465,0-4.929,0-7.394,0a2.524,2.524,0,0,1-2.676-2.048,12.825,12.825,0,0,1-.051-2.511.8.8,0,0,1,.891-.669.84.84,0,0,1,.8.818c.017.545,0,1.09.008,1.635a.908.908,0,0,0,1.026,1.026c2.567,0,5.134-.011,7.7,0a2.6,2.6,0,0,1,2.3,3.86,2.563,2.563,0,0,1-2.382,1.374c-1.443.008-2.885,0-4.328,0h-17.957c-.136,0-.273-.005-.409.009a.848.848,0,0,0-.766.853.84.84,0,0,0,.756.859,4.379,4.379,0,0,0,.476.014h27.158a4.156,4.156,0,0,1,.442.011.872.872,0,0,1,.812.744.881.881,0,0,1-.509.916l-.149.078Z" transform="translate(0 -253.755)" fill="#fbfcfb"/><path d="M-561.147,249.228h-.406q-1.84,0-3.68,0a2.5,2.5,0,0,1-.441-.029.857.857,0,0,1-.711-.87.875.875,0,0,1,.754-.839,1.644,1.644,0,0,1,.238-.009q14.7,0,29.407,0a1.389,1.389,0,0,1,.466.072.854.854,0,0,1,.54.862.856.856,0,0,1-.664.771,2.326,2.326,0,0,1-.474.039q-1.84,0-3.68,0h-.415c0,.293,0,.561,0,.83a2.6,2.6,0,0,1-2.624,2.654q-7.854.02-15.709,0a2.587,2.587,0,0,1-2.6-2.637C-561.15,249.8-561.147,249.535-561.147,249.228Z" transform="translate(-0.066 0)" fill="#fbfcfb"/><path d="M-438.842,332.726h10.453c0,.172,0,.337,0,.5a23.655,23.655,0,0,1-.08,2.821,4.239,4.239,0,0,1-4.081,3.626,13.546,13.546,0,0,1-2.916-.127,4.206,4.206,0,0,1-3.37-4.013C-438.87,334.608-438.842,333.678-438.842,332.726Z" transform="translate(-117.129 -78.249)" fill="#fbfcfb"/><path d="M-401.78,435.813a12.617,12.617,0,0,1-.01,1.469,2.456,2.456,0,0,1-1.468,1.992.344.344,0,0,0-.243.378,7.331,7.331,0,0,1,0,.783.851.851,0,0,1-.853.84.843.843,0,0,1-.868-.821c-.017-.283.01-.57-.018-.851a.431.431,0,0,0-.192-.3,2.629,2.629,0,0,1-1.549-2.55c0-.317,0-.633,0-.953A13.259,13.259,0,0,0-401.78,435.813Z" transform="translate(-146.383 -172.863)" fill="#fbfcfb"/></g></svg>