<svg xmlns="http://www.w3.org/2000/svg" width="25.828" height="34.576" viewBox="0 0 25.828 34.576">
  <g id="Group_2209" data-name="Group 2209" transform="translate(-21.069 -16.712)">
    <path id="Path_1136" data-name="Path 1136" d="M34.416,21.485V14.57H19.709A1.429,1.429,0,0,0,18.28,16V47.636a1.429,1.429,0,0,0,1.429,1.429H42.622a1.429,1.429,0,0,0,1.429-1.429V24.159H37.136a2.674,2.674,0,0,1-2.674-2.674ZM28.63,41.574l-3.043,3.043a1.014,1.014,0,0,1-1.429,0L22.89,43.349a1.014,1.014,0,1,1,1.429-1.429l.553.553,2.305-2.305a1.014,1.014,0,1,1,1.452,1.406Zm0-6.742-3.043,3.043a1.014,1.014,0,0,1-1.429,0L22.89,36.607a1.014,1.014,0,1,1,1.429-1.429l.553.634,2.305-2.305a1.014,1.014,0,1,1,1.429,1.429Zm0-7.249-3.043,3.043a1.014,1.014,0,0,1-1.429,0L22.89,29.357a1.014,1.014,0,0,1,1.429-1.429l.553.553,2.305-2.305a1.014,1.014,0,1,1,1.429,1.429ZM38.7,43.441H32.249a1.014,1.014,0,1,1,0-2.017H38.7a1.014,1.014,0,0,1,0,2.017ZM31.223,35.7a1.014,1.014,0,0,1,1.026-1.037H38.7a1.014,1.014,0,1,1,0,2.017H32.249a1.014,1.014,0,0,1-1.014-.991Zm8.471-6.8A1.014,1.014,0,0,1,38.68,29.91H32.249a1.014,1.014,0,0,1,0-2.017H38.7a1.014,1.014,0,0,1,1.014,1.014Z" transform="translate(2.789 2.223)" fill="#fff"/>
    <path id="Path_1137" data-name="Path 1137" d="M34,21.5a.657.657,0,0,0,.657.657h7.054L34,14.5Z" transform="translate(5.187 2.212)" fill="#fff"/>
  </g>
</svg>
