<svg xmlns="http://www.w3.org/2000/svg" width="241" height="97.64" viewBox="0 0 241 97.64"><g transform="translate(-67.656 -39.192)"><g transform="translate(67.656 39.192)"><path d="M47.216,0A47.216,47.216,0,1,1,0,47.216,47.216,47.216,0,0,1,47.216,0Z" fill="#097e68"/><g transform="translate(37.556 12.836)"><path d="M217.146,86.565c-.793-1.432-4.206.84-3.774-2.418a3.522,3.522,0,0,1,3.763-3.339c2.674.112,3.469-1.585,4.034-3.561,1.126-3.941,3.882-7.334,3.268-11.9-.345-2.572,2.043-2.064,3.646-1.643,5.409,1.422,9.157,7.456,7.538,12.857-.9,3.015-.243,3.875,2.679,3.722a8.562,8.562,0,0,1,2.977.36c1.141.362,2.231,1.124,1.991,2.5-.229,1.311-1.578,1.239-2.455,1.057-7.9-1.633-10.3,3.42-12.251,9.567-2.021,6.364-4.615,12.545-6.779,18.867-.618,1.805-1.74,3.654-.7,6.61,7.559-6.032,14.768-11.891,18.616-20.64,3.017-6.857,6.4-13.271,12.587-17.758,5.762-4.182,11.008-3.68,16.222,1.377,4.027,3.9,4.429,9.773.76,15.1a24.024,24.024,0,0,1-14.516,10.046c-3.014.732-4.852,4.8-3.614,8.233,1.343,3.718,4.229,3.526,6.961,2.01,10.345-5.743,16.972-14.912,22.284-25.128.681-1.309.071-3.286.078-4.954.03-6.19,3.249-9.247,9.353-9.164,2.117.028,2.839.688,3.014,2.862a75.465,75.465,0,0,0,2.818,16.21c7.114-5.822,13.887-11.458,20.789-16.928,1.175-.931,2.431-3.706,4.293-1.577,1.493,1.708.282,3.925-1.272,5.346-5.435,4.971-10.948,9.856-16.464,14.736-6.2,5.481-6.211,5.463-2.859,13.217,3.523,8.151,4.084,8.217,9.627,1.12A195.054,195.054,0,0,0,322.5,94.114c.557-.921.829-2.607,2.268-2.189,1.559.452,1.458,2.1,1.232,3.432a14.249,14.249,0,0,1-1,3.342,59.366,59.366,0,0,1-14.7,20.72c-7.523,6.687-16.244,5.641-21.844-2.767-1.692-2.542-2.728-2.732-4.691-.58a65.793,65.793,0,0,1-5.431,5.212c-.97.843-1.708,3.068-3.524,1.34-1.455-1.387-1.051-3.113.1-4.54a26.4,26.4,0,0,1,4.368-4.83c4.763-3.546,5.765-7.678,2.46-12.858-1.542.016-1.614,1.69-2.248,2.67a71.68,71.68,0,0,1-13.132,15.078c-11.259,9.856-22.5,3.758-28.139-7.628-4.132,3.923-8.19,7.792-12.938,10.833-4.611,2.953-8.654,2.248-12.906-.956-4.025-3.031-4.711-6.7-3.221-11.073C211.736,101.738,214.455,94.2,217.146,86.565Zm36.565,15.578c7.788-.564,13.6-7.038,13.31-15.248C260.211,90.194,256.6,95.713,253.711,102.143Z" transform="translate(-122.682 -55.027)" fill="#fff"/><path d="M123.214,114.35c12.018.4,23.277-2.959,33.842,2.589-11.921.645-23.455,3.187-35.067,5.238-2.314.408-4.626-.44-6.744-1.556-5.3-2.793-6.122-6.007-2.5-10.84,5.74-7.657,12.658-14.244,19.487-20.89,8.389-8.165,16.921-16.184,25.363-24.295,1.537-1.478,2.942-3.092,4.516-4.759-2.271-1.5-3.842.049-5.388.547-7,2.256-13.963,4.624-21.38,5.1-2.342.149-4.707.211-6.84-1.026-2.078-1.2-3.165-2.925-2.611-5.421.656-2.961,2.743-2.121,4.725-1.878,9.289,1.139,18.323-.677,27.32-2.593,4.429-.942,8.643-1.724,11.623,2.905,2.744,4.263,2.281,9.023-1.574,13.779-7.616,9.4-16.8,17.226-25.6,25.438C136.3,102.369,130.139,107.976,123.214,114.35Z" transform="translate(-110.533 -53.847)" fill="#fff"/><path d="M184.714,102.164c-3.505,0-7.029.222-10.509-.075-2.493-.213-4.683-1.923-4.7-4.447-.016-2.79,2.861-2.233,4.689-2.5,4.622-.677,9.266-1.208,13.909-1.735a7.827,7.827,0,0,1,8.38,6.248c.423,1.974-.22,2.858-2.25,2.678-.166-.015-.334.011-.5.011h-9.019Z" transform="translate(-117.852 -58.751)" fill="#fff"/></g></g><g transform="translate(188.464 126.924)"><path d="M212.356,140.143v6.631h-.872v-4.944l-2.2,4.944h-.613l-2.214-4.954v4.954h-.872v-6.631h.939l2.453,5.48,2.452-5.48Z" transform="translate(-205.581 -139.453)" fill="#fff"/><path d="M214.954,142.9a2.37,2.37,0,0,1,.9-.944,2.46,2.46,0,0,1,1.27-.335,2.328,2.328,0,0,1,1.2.3,1.969,1.969,0,0,1,.757.747v-.958h.882v5.251h-.882v-.977a2.068,2.068,0,0,1-.771.761,2.314,2.314,0,0,1-1.193.3,2.383,2.383,0,0,1-1.265-.345,2.425,2.425,0,0,1-.892-.968,3.018,3.018,0,0,1-.326-1.419A2.946,2.946,0,0,1,214.954,142.9Zm3.881.389a1.68,1.68,0,0,0-.647-.676,1.835,1.835,0,0,0-1.787-.005,1.671,1.671,0,0,0-.642.671,2.138,2.138,0,0,0-.239,1.034,2.192,2.192,0,0,0,.239,1.05,1.7,1.7,0,0,0,.642.68,1.734,1.734,0,0,0,.892.235,1.756,1.756,0,0,0,.9-.235,1.678,1.678,0,0,0,.647-.68,2.169,2.169,0,0,0,.239-1.04A2.133,2.133,0,0,0,218.835,143.288Z" transform="translate(-206.704 -139.636)" fill="#fff"/><path d="M226.507,142.188a2.233,2.233,0,0,1,.594,1.673v3.095h-.862v-2.971a1.691,1.691,0,0,0-.393-1.2,1.4,1.4,0,0,0-1.073-.416,1.439,1.439,0,0,0-1.1.431,1.763,1.763,0,0,0-.407,1.256v2.9H222.4V141.7h.872v.747a1.737,1.737,0,0,1,.7-.624,2.193,2.193,0,0,1,.983-.219A2.128,2.128,0,0,1,226.507,142.188Z" transform="translate(-207.668 -139.635)" fill="#fff"/><path d="M234.047,141.718v5.251h-.872v-.777a1.689,1.689,0,0,1-.695.628,2.137,2.137,0,0,1-.982.226,2.367,2.367,0,0,1-1.1-.254,1.853,1.853,0,0,1-.772-.762,2.513,2.513,0,0,1-.283-1.236v-3.076h.863v2.961a1.676,1.676,0,0,0,.393,1.194,1.407,1.407,0,0,0,1.073.416,1.432,1.432,0,0,0,1.1-.432,1.768,1.768,0,0,0,.4-1.254v-2.884Z" transform="translate(-208.53 -139.648)" fill="#fff"/><path d="M238.462,142.143h-1.1v4.533h-.871v-4.533h-.681v-.718h.681v-.374a1.648,1.648,0,0,1,.455-1.288,2.161,2.161,0,0,1,1.462-.407v.728a1.161,1.161,0,0,0-.81.225,1,1,0,0,0-.235.743v.374h1.1Z" transform="translate(-209.332 -139.355)" fill="#fff"/><path d="M239.952,142.9a2.37,2.37,0,0,1,.9-.944,2.46,2.46,0,0,1,1.27-.335,2.329,2.329,0,0,1,1.2.3,1.969,1.969,0,0,1,.757.747v-.958h.882v5.251h-.882v-.977a2.068,2.068,0,0,1-.771.761,2.313,2.313,0,0,1-1.193.3,2.382,2.382,0,0,1-1.265-.345,2.425,2.425,0,0,1-.892-.968,3.018,3.018,0,0,1-.326-1.419A2.946,2.946,0,0,1,239.952,142.9Zm3.881.389a1.684,1.684,0,0,0-.646-.676,1.837,1.837,0,0,0-1.788-.005,1.671,1.671,0,0,0-.642.671,2.138,2.138,0,0,0-.239,1.034,2.192,2.192,0,0,0,.239,1.05,1.7,1.7,0,0,0,.642.68,1.737,1.737,0,0,0,.892.235,1.762,1.762,0,0,0,.9-.235,1.682,1.682,0,0,0,.646-.68,2.169,2.169,0,0,0,.239-1.04A2.133,2.133,0,0,0,243.833,143.288Z" transform="translate(-209.806 -139.636)" fill="#fff"/><path d="M247.347,142.9a2.351,2.351,0,0,1,.906-.944,2.876,2.876,0,0,1,2.923.134,2.222,2.222,0,0,1,.829,1.3h-.939a1.346,1.346,0,0,0-.522-.757,1.611,1.611,0,0,0-.963-.279,1.543,1.543,0,0,0-1.207.513,2.1,2.1,0,0,0-.46,1.452,2.138,2.138,0,0,0,.46,1.466,1.54,1.54,0,0,0,1.207.517,1.624,1.624,0,0,0,.958-.269,1.356,1.356,0,0,0,.527-.766H252a2.312,2.312,0,0,1-.843,1.289,2.531,2.531,0,0,1-1.582.484,2.6,2.6,0,0,1-1.327-.336,2.328,2.328,0,0,1-.906-.948,3.021,3.021,0,0,1-.326-1.437A2.969,2.969,0,0,1,247.347,142.9Z" transform="translate(-210.724 -139.636)" fill="#fff"/><path d="M255.028,142.249v3.1a.737.737,0,0,0,.163.541.8.8,0,0,0,.566.159h.642v.737h-.786a1.558,1.558,0,0,1-1.092-.335,1.438,1.438,0,0,1-.364-1.1v-3.1h-.681v-.718h.681v-1.323h.872v1.323H256.4v.718Z" transform="translate(-211.525 -139.461)" fill="#fff"/><path d="M262.666,141.718v5.251h-.872v-.777a1.7,1.7,0,0,1-.695.628,2.143,2.143,0,0,1-.983.226,2.367,2.367,0,0,1-1.1-.254,1.858,1.858,0,0,1-.772-.762,2.513,2.513,0,0,1-.282-1.236v-3.076h.862v2.961a1.676,1.676,0,0,0,.393,1.194,1.406,1.406,0,0,0,1.073.416,1.432,1.432,0,0,0,1.1-.432,1.768,1.768,0,0,0,.4-1.254v-2.884Z" transform="translate(-212.082 -139.648)" fill="#fff"/><path d="M266.546,141.858a2.024,2.024,0,0,1,1.04-.249v.9h-.23q-1.466,0-1.466,1.591v2.855h-.872V141.7h.872v.853A1.673,1.673,0,0,1,266.546,141.858Z" transform="translate(-212.957 -139.635)" fill="#fff"/><path d="M269.107,140.4a.593.593,0,0,1,.421-1.015.545.545,0,0,1,.407.172.613.613,0,0,1,0,.843.546.546,0,0,1-.407.173A.574.574,0,0,1,269.107,140.4Zm.844,1.026v5.251h-.872v-5.251Z" transform="translate(-213.443 -139.359)" fill="#fff"/><path d="M275.9,142.188a2.233,2.233,0,0,1,.594,1.673v3.095h-.863v-2.971a1.7,1.7,0,0,0-.392-1.2,1.406,1.406,0,0,0-1.073-.416,1.437,1.437,0,0,0-1.1.431,1.763,1.763,0,0,0-.407,1.256v2.9h-.872V141.7h.872v.747a1.738,1.738,0,0,1,.7-.624,2.192,2.192,0,0,1,.982-.219A2.13,2.13,0,0,1,275.9,142.188Z" transform="translate(-213.798 -139.635)" fill="#fff"/><path d="M282.1,141.917a1.964,1.964,0,0,1,.761.747v-.958h.882v5.366a2.628,2.628,0,0,1-.307,1.28,2.183,2.183,0,0,1-.877.877,2.688,2.688,0,0,1-1.327.315,2.908,2.908,0,0,1-1.725-.488,1.909,1.909,0,0,1-.815-1.332h.863a1.376,1.376,0,0,0,.595.772,1.938,1.938,0,0,0,1.083.293,1.6,1.6,0,0,0,1.174-.451,1.7,1.7,0,0,0,.455-1.265v-1.1a2.087,2.087,0,0,1-.766.766,2.249,2.249,0,0,1-1.188.307,2.39,2.39,0,0,1-2.166-1.313,3.018,3.018,0,0,1-.326-1.419,2.946,2.946,0,0,1,.326-1.413,2.37,2.37,0,0,1,.9-.944,2.46,2.46,0,0,1,1.27-.335A2.341,2.341,0,0,1,282.1,141.917Zm.522,1.371a1.683,1.683,0,0,0-.646-.676,1.837,1.837,0,0,0-1.788-.005,1.671,1.671,0,0,0-.642.671,2.138,2.138,0,0,0-.239,1.034,2.192,2.192,0,0,0,.239,1.05,1.7,1.7,0,0,0,.642.68,1.734,1.734,0,0,0,.892.235,1.762,1.762,0,0,0,.9-.235,1.681,1.681,0,0,0,.646-.68,2.169,2.169,0,0,0,.239-1.04A2.133,2.133,0,0,0,282.626,143.288Z" transform="translate(-214.621 -139.636)" fill="#fff"/><path d="M294.18,146.748l-.872-.881a3.318,3.318,0,0,1-1.044.752,3.1,3.1,0,0,1-1.256.243,2.846,2.846,0,0,1-1.222-.249,1.912,1.912,0,0,1-.823-.71,1.953,1.953,0,0,1-.293-1.073,2,2,0,0,1,.4-1.232,2.63,2.63,0,0,1,1.174-.838,2.878,2.878,0,0,1-.441-.67,1.666,1.666,0,0,1-.134-.671,1.4,1.4,0,0,1,.215-.763,1.452,1.452,0,0,1,.618-.532,2.155,2.155,0,0,1,.93-.191,1.926,1.926,0,0,1,.9.2,1.333,1.333,0,0,1,.575.561,1.522,1.522,0,0,1,.173.8h-.871a.8.8,0,0,0-.221-.618.814.814,0,0,0-.594-.225.879.879,0,0,0-.618.215.717.717,0,0,0-.235.552,1.073,1.073,0,0,0,.159.555,3.946,3.946,0,0,0,.532.661l1.994,2,.173-.269.651-1.093h.94l-.786,1.362q-.163.286-.384.6l1.5,1.5Zm-2.238-.833a2.576,2.576,0,0,0,.791-.624l-1.965-1.973a1.584,1.584,0,0,0-1.226,1.485,1.224,1.224,0,0,0,.406.94,1.507,1.507,0,0,0,1.059.372A2.135,2.135,0,0,0,291.942,145.915Z" transform="translate(-215.893 -139.427)" fill="#fff"/><path d="M300.985,140.8v2.233h2.433v.719h-2.433v2.3h2.721v.718h-3.593v-6.689h3.593v.719Z" transform="translate(-217.313 -139.444)" fill="#fff"/><path d="M308.379,146.969l-1.246-1.955-1.2,1.955h-.911l1.7-2.607-1.7-2.644h.987l1.245,1.945,1.189-1.945h.91l-1.686,2.6,1.7,2.654Z" transform="translate(-217.923 -139.648)" fill="#fff"/><path d="M312.609,141.921a2.3,2.3,0,0,1,1.193-.3,2.459,2.459,0,0,1,1.269.335,2.37,2.37,0,0,1,.9.944,2.945,2.945,0,0,1,.326,1.413,3.017,3.017,0,0,1-.326,1.419,2.39,2.39,0,0,1-2.165,1.313,2.293,2.293,0,0,1-1.183-.3,2.167,2.167,0,0,1-.781-.752v3.459h-.872v-7.742h.872v.967A2.08,2.08,0,0,1,312.609,141.921Zm2.553,1.356a1.658,1.658,0,0,0-.646-.671,1.791,1.791,0,0,0-.9-.229,1.719,1.719,0,0,0-1.538.914,2.315,2.315,0,0,0,0,2.071,1.717,1.717,0,0,0,.652.68,1.741,1.741,0,0,0,.886.235,1.759,1.759,0,0,0,.9-.235,1.682,1.682,0,0,0,.646-.68,2.182,2.182,0,0,0,.24-1.05A2.128,2.128,0,0,0,315.162,143.277Z" transform="translate(-218.66 -139.636)" fill="#fff"/><path d="M319.269,146.707a2.37,2.37,0,0,1-.939-.953,2.915,2.915,0,0,1-.341-1.432,2.842,2.842,0,0,1,.349-1.423,2.413,2.413,0,0,1,.954-.949,2.929,2.929,0,0,1,2.7,0,2.429,2.429,0,0,1,.954.944,2.835,2.835,0,0,1,.349,1.429,2.8,2.8,0,0,1-.359,1.432,2.482,2.482,0,0,1-.973.953,2.779,2.779,0,0,1-1.36.336A2.679,2.679,0,0,1,319.269,146.707Zm2.218-.651a1.679,1.679,0,0,0,.667-.661,2.122,2.122,0,0,0,.253-1.073,2.149,2.149,0,0,0-.249-1.074,1.631,1.631,0,0,0-.652-.656,1.883,1.883,0,0,0-1.749,0,1.583,1.583,0,0,0-.637.656,2.226,2.226,0,0,0-.24,1.074,2.275,2.275,0,0,0,.236,1.083,1.562,1.562,0,0,0,.627.656,1.764,1.764,0,0,0,.863.215A1.836,1.836,0,0,0,321.486,146.056Z" transform="translate(-219.531 -139.636)" fill="#fff"/><path d="M326.891,141.858a2.024,2.024,0,0,1,1.04-.249v.9h-.23q-1.466,0-1.466,1.591v2.855h-.872V141.7h.872v.853A1.668,1.668,0,0,1,326.891,141.858Z" transform="translate(-220.447 -139.635)" fill="#fff"/><path d="M330.437,142.249v3.1a.737.737,0,0,0,.163.541.8.8,0,0,0,.566.159h.642v.737h-.786a1.561,1.561,0,0,1-1.092-.335,1.438,1.438,0,0,1-.364-1.1v-3.1h-.681v-.718h.681v-1.323h.872v1.323h1.371v.718Z" transform="translate(-220.884 -139.461)" fill="#fff"/><path d="M334.161,146.837a1.822,1.822,0,0,1-.758-.575,1.534,1.534,0,0,1-.307-.849h.9a.885.885,0,0,0,.369.643,1.407,1.407,0,0,0,.867.249,1.261,1.261,0,0,0,.786-.221.671.671,0,0,0,.287-.555.546.546,0,0,0-.307-.512,4.284,4.284,0,0,0-.949-.331,6.946,6.946,0,0,1-.954-.311,1.7,1.7,0,0,1-.632-.469,1.224,1.224,0,0,1-.264-.82,1.24,1.24,0,0,1,.239-.737,1.611,1.611,0,0,1,.681-.532,2.439,2.439,0,0,1,1.006-.2,2.148,2.148,0,0,1,1.408.441,1.588,1.588,0,0,1,.575,1.207h-.871a.9.9,0,0,0-.331-.661,1.459,1.459,0,0,0-1.557-.047.621.621,0,0,0-.278.526.577.577,0,0,0,.167.426,1.2,1.2,0,0,0,.422.269q.254.1.7.226a7.512,7.512,0,0,1,.92.3,1.607,1.607,0,0,1,.609.446,1.192,1.192,0,0,1,.264.776,1.329,1.329,0,0,1-.239.776,1.6,1.6,0,0,1-.676.541,2.423,2.423,0,0,1-1,.2A2.709,2.709,0,0,1,334.161,146.837Z" transform="translate(-221.406 -139.636)" fill="#fff"/></g></g></svg>