<svg xmlns="http://www.w3.org/2000/svg" width="39.563" height="28.29" viewBox="0 0 39.563 28.29"><g transform="translate(562.983 -306.955)"><path d="M-525.74,332.422h-3.035c-2.461,0-4.923,0-7.384-.006a.492.492,0,0,0-.527.329,4.242,4.242,0,0,1-4.918,2.34,3.706,3.706,0,0,1-2.526-2.663c-1.3,0-2.613,0-3.923,0a1.412,1.412,0,0,1-1.346-.763,1.4,1.4,0,0,1,1.172-2.061c.485-.026.973,0,1.459-.009a1.419,1.419,0,0,0,1.444-1.417,1.416,1.416,0,0,0-1.453-1.408c-.9-.01-1.8,0-2.7,0a1.425,1.425,0,0,1-1.507-1.4,1.417,1.417,0,0,1,1.521-1.427q5.549,0,11.1,0a1.414,1.414,0,0,0,1.421-1.939,1.4,1.4,0,0,0-1.4-.89c-1.842,0-3.685.01-5.527,0a1.4,1.4,0,0,1-1.284-2.08,1.418,1.418,0,0,1,1.354-.748q3.8.007,7.605,0c.678,0,1.356,0,2.034,0a1.433,1.433,0,0,0,1.565-1.43,1.43,1.43,0,0,0-1.553-1.4q-6.854,0-13.707,0a2.817,2.817,0,0,1-.615-.039,1.418,1.418,0,0,1-1.094-1.549,1.411,1.411,0,0,1,1.437-1.237q4.377-.01,8.755,0c.354,0,.708,0,1.061,0a1.422,1.422,0,0,0,1.471-1.435,1.415,1.415,0,0,0-1.47-1.391c-2.314-.007-4.628,0-6.942,0a1.409,1.409,0,0,1-1.4-1.89,1.379,1.379,0,0,1,1.186-.929,1.906,1.906,0,0,1,.265-.007q9.617,0,19.234,0a1.389,1.389,0,0,1,1.509,1.636c-.117,1.319-.282,2.635-.433,4.022h.477c2.285,0,4.569.011,6.853-.006a1.58,1.58,0,0,1,1.614,1.047c.974,2.239,1.984,4.464,2.948,6.708a2.32,2.32,0,0,1,.151,1.107c-.316,3.076-.671,6.149-.992,9.224-.136,1.3-.577,1.727-1.9,1.727-.678,0-1.356.013-2.034-.007a.486.486,0,0,0-.527.33,4.25,4.25,0,0,1-3.132,2.416,3.609,3.609,0,0,1-4.2-2.414Zm10-9.907a3.473,3.473,0,0,0,.035-1.322c-.774-1.857-1.626-3.682-2.464-5.512a.438.438,0,0,0-.317-.219c-1.045-.015-2.09-.029-3.134,0a1.349,1.349,0,0,0-1.337,1.234c-.174,1.43-.335,2.863-.477,4.3a1.36,1.36,0,0,0,1.326,1.511C-520.015,322.53-517.926,322.515-515.736,322.515Zm-25.7,8.837c0,.653.43,1.123.965,1.061a1.766,1.766,0,0,0,1.419-2.121.853.853,0,0,0-1.192-.616A1.742,1.742,0,0,0-541.437,331.352Zm18.395,0c0,.674.452,1.148,1.005,1.059a1.76,1.76,0,0,0,1.4-2.027.868.868,0,0,0-1.249-.694A1.749,1.749,0,0,0-523.042,331.348Z" transform="translate(-10.588)" fill="#fff"/><path d="M-560.883,405.737c-.25,0-.5.011-.751,0a1.42,1.42,0,0,1-1.349-1.421,1.405,1.405,0,0,1,1.367-1.4c.5-.018,1-.017,1.5,0a1.413,1.413,0,0,1,1.372,1.4,1.419,1.419,0,0,1-1.39,1.425C-560.382,405.746-560.632,405.738-560.883,405.737Z" transform="translate(0 -84.636)" fill="#fff"/></g></svg>