<svg xmlns="http://www.w3.org/2000/svg" width="38.921" height="34.622" viewBox="0 0 38.921 34.622">
  <g id="Group_2210" data-name="Group 2210" transform="translate(-12.136 -15.179)">
    <path id="Path_1140" data-name="Path 1140" d="M21.836,32.074a23.189,23.189,0,0,0,3.158-.207V20.906a25.252,25.252,0,0,0-3.158-.2c-6.247,0-11.306,2.305-11.306,5.117V26.98C10.53,29.781,15.59,32.074,21.836,32.074Z" transform="translate(1.606 3.159)" fill="#fff"/>
    <path id="Path_1141" data-name="Path 1141" d="M21.836,36.506a25.207,25.207,0,0,0,3.158-.207V33.083a23.188,23.188,0,0,1-3.158.207c-5.452,0-9.993-1.752-11.064-4.08a2.409,2.409,0,0,0-.242,1.049v1.153C10.53,34.2,15.59,36.506,21.836,36.506Z" transform="translate(1.606 4.456)" fill="#fff"/>
    <path id="Path_1142" data-name="Path 1142" d="M24.994,38.306v-.254a25.206,25.206,0,0,1-3.158.207c-5.452,0-9.993-1.752-11.064-4.08a2.409,2.409,0,0,0-.242,1.049v1.153c0,2.835,5.06,5.129,11.306,5.129a25.057,25.057,0,0,0,3.573-.254,4.1,4.1,0,0,1-.415-1.8Z" transform="translate(1.606 5.214)" fill="#fff"/>
    <path id="Path_1143" data-name="Path 1143" d="M35.986,13.17c-6.247,0-11.306,2.305-11.306,5.129v1.153c0,2.743,5.06,5.048,11.306,5.048s11.306-2.305,11.306-5.129V18.218C47.293,15.464,42.222,13.17,35.986,13.17Z" transform="translate(3.765 2.009)" fill="#fff"/>
    <path id="Path_1144" data-name="Path 1144" d="M35.986,25.755c-5.452,0-10-1.74-11.076-4.068a2.524,2.524,0,0,0-.231,1.049v1.153c0,2.778,5.06,5.083,11.306,5.083s11.306-2.305,11.306-5.129V22.689a2.536,2.536,0,0,0-.242-1.049C45.979,24.014,41.438,25.755,35.986,25.755Z" transform="translate(3.765 3.301)" fill="#fff"/>
    <path id="Path_1145" data-name="Path 1145" d="M35.986,30.72c-5.452,0-10-1.752-11.076-4.08a2.6,2.6,0,0,0-.231,1.049v1.153c0,2.824,5.06,5.129,11.306,5.129s11.306-2.305,11.306-5.129V27.689a2.628,2.628,0,0,0-.242-1.049C45.979,28.968,41.438,30.72,35.986,30.72Z" transform="translate(3.765 4.064)" fill="#fff"/>
    <path id="Path_1146" data-name="Path 1146" d="M35.986,35.96c-5.452,0-10-1.752-11.076-4.08a2.57,2.57,0,0,0-.231,1.049v1.153c0,2.835,5.06,5.129,11.306,5.129s11.306-2.305,11.306-5.129V32.929a2.582,2.582,0,0,0-.242-1.049C45.979,34.208,41.438,35.96,35.986,35.96Z" transform="translate(3.765 4.863)" fill="#fff"/>
    <path id="Path_1147" data-name="Path 1147" d="M35.986,40.918c-5.452,0-10-1.74-11.076-4.068A2.524,2.524,0,0,0,24.68,37.9v1.153c0,2.835,5.06,5.129,11.306,5.129s11.306-2.305,11.306-5.129V37.9a2.536,2.536,0,0,0-.242-1.049C45.979,39.178,41.438,40.918,35.986,40.918Z" transform="translate(3.765 5.621)" fill="#fff"/>
  </g>
</svg>
