<svg xmlns="http://www.w3.org/2000/svg" xmlns:xlink="http://www.w3.org/1999/xlink" width="208.917" height="186.601" viewBox="0 0 208.917 186.601">
  <defs>
    <linearGradient id="linear-gradient" x1="0.927" y1="0.326" x2="0.025" y2="0.933" gradientUnits="objectBoundingBox">
      <stop offset="0" stop-color="#00ac8c"/>
      <stop offset="1" stop-color="#005646"/>
    </linearGradient>
  </defs>
  <g id="Group_1645" data-name="Group 1645" transform="translate(-661.648 330.719)">
    <path id="Path_1082" data-name="Path 1082" d="M791.917-321.377h-66.83a19.4,19.4,0,0,0-16.8,9.7L674.874-253.8a19.393,19.393,0,0,0,0,19.4l33.415,57.877a19.4,19.4,0,0,0,16.8,9.7h66.83a19.4,19.4,0,0,0,16.8-9.7l33.415-57.877a19.392,19.392,0,0,0,0-19.4l-33.415-57.878A19.4,19.4,0,0,0,791.917-321.377Z" transform="translate(7.604 6.684)" fill="#01cba5"/>
    <g id="Path_1083" data-name="Path 1083" transform="translate(11.099 9.816)" fill="url(#linear-gradient)">
      <path d="M 785.1763305664062 -176.4714050292969 L 724.8380737304688 -176.4714050292969 C 721.5935668945312 -176.4714050292969 718.3934326171875 -177.3287963867188 715.58349609375 -178.9508819580078 C 712.773193359375 -180.5731964111328 710.430419921875 -182.9159240722656 708.8084106445312 -185.7257690429688 L 678.6392822265625 -237.9805603027344 C 677.0171508789062 -240.7905883789062 676.1597290039062 -243.9909362792969 676.1597290039062 -247.2357025146484 C 676.1597290039062 -250.4804840087891 677.0171508789062 -253.6808471679688 678.6392822265625 -256.4908142089844 L 708.8084716796875 -308.7439880371094 C 710.4305419921875 -311.5538940429688 712.7732543945312 -313.8968811035156 715.5833740234375 -315.5195922851562 C 718.3935546875 -317.1422729492188 721.59375 -318 724.8380737304688 -318 L 785.1763305664062 -318 C 788.421142578125 -318 791.62158203125 -317.1422729492188 794.4317626953125 -315.5195922851562 C 797.241455078125 -313.8971557617188 799.58447265625 -311.5542602539062 801.2075805664062 -308.7441101074219 L 831.3751220703125 -256.4908752441406 C 832.9979858398438 -253.6809844970703 833.8558349609375 -250.4805603027344 833.8558349609375 -247.2357025146484 C 833.8558349609375 -243.9908599853516 832.9979858398438 -240.7904357910156 831.3750610351562 -237.9804229736328 L 801.2076416015625 -185.7257232666016 C 799.5845336914062 -182.9155578613281 797.241455078125 -180.5729064941406 794.4317016601562 -178.9508819580078 C 791.6217651367188 -177.3287963867188 788.4213256835938 -176.4714050292969 785.1763305664062 -176.4714050292969 Z" stroke="none"/>
      <path d="M 724.8380737304688 -317 C 718.5831909179688 -317 712.8018188476562 -313.6615600585938 709.6744995117188 -308.2439575195312 L 679.5053100585938 -255.9908752441406 C 676.3778686523438 -250.5732421875 676.3778686523438 -243.8981628417969 679.5053100585938 -238.4805450439453 L 709.6744995117188 -186.2257080078125 C 712.8018188476562 -180.8080749511719 718.5831909179688 -177.4714050292969 724.8380737304688 -177.4714050292969 L 785.1763305664062 -177.4714050292969 C 791.4328002929688 -177.4714050292969 797.2124633789062 -180.8080749511719 800.3416137695312 -186.2257080078125 L 830.5090942382812 -238.4805450439453 C 833.6381225585938 -243.8981628417969 833.6381225585938 -250.5732421875 830.5090942382812 -255.9908752441406 L 800.3416137695312 -308.2439575195312 C 797.2124633789062 -313.6615600585938 791.4328002929688 -317 785.1763305664062 -317 L 724.8380737304688 -317 M 724.8380737304688 -319 L 785.1763305664062 -319 C 788.596435546875 -319 791.9698486328125 -318.095947265625 794.9318237304688 -316.3855590820312 C 797.8931884765625 -314.675537109375 800.3627319335938 -312.2061157226562 802.073486328125 -309.2442626953125 L 832.2411499023438 -256.9908447265625 C 833.95166015625 -254.029296875 834.8558349609375 -250.6558990478516 834.8558349609375 -247.2357025146484 C 834.8558349609375 -243.8155059814453 833.95166015625 -240.442138671875 832.240966796875 -237.4802551269531 L 802.0736694335938 -185.2257385253906 C 800.36279296875 -182.2636413574219 797.8931884765625 -179.7944946289062 794.9315795898438 -178.0848388671875 C 791.9699096679688 -176.3751220703125 788.5965576171875 -175.4714050292969 785.1763305664062 -175.4714050292969 L 724.8380737304688 -175.4714050292969 C 721.4183349609375 -175.4714050292969 718.0452880859375 -176.3751220703125 715.0835571289062 -178.0848388671875 C 712.1213989257812 -179.7947998046875 709.6520385742188 -182.2641296386719 707.9423828125 -185.225830078125 L 677.7732543945312 -237.4805603027344 C 676.0634765625 -240.4424133300781 675.1597290039062 -243.8156585693359 675.1597290039062 -247.2357025146484 C 675.1597290039062 -250.6557464599609 676.0634765625 -254.0290069580078 677.773193359375 -256.9907836914062 L 707.9424438476562 -309.2439880371094 C 709.652099609375 -312.2056579589844 712.1213989257812 -314.6752319335938 715.0833129882812 -316.3855590820312 C 718.0453491210938 -318.095947265625 721.41845703125 -319 724.8380737304688 -319 Z" stroke="none" fill="#7ffebe"/>
    </g>
    <g id="Group_1641" data-name="Group 1641" transform="translate(661.648 -330.719)">
      <path id="Path_1084" data-name="Path 1084" d="M807.785-144.118H724.428a21.169,21.169,0,0,1-18.282-10.557l-41.679-72.187a21.171,21.171,0,0,1,0-21.111l41.679-72.189a21.171,21.171,0,0,1,18.282-10.556h83.357a21.17,21.17,0,0,1,18.282,10.556l41.679,72.189a21.171,21.171,0,0,1,0,21.111l-41.679,72.187A21.168,21.168,0,0,1,807.785-144.118Zm-83.357-183.17a17.727,17.727,0,0,0-15.311,8.84l-41.679,72.189a17.73,17.73,0,0,0,0,17.68l41.679,72.187a17.728,17.728,0,0,0,15.311,8.842h83.357a17.728,17.728,0,0,0,15.311-8.842l41.679-72.187a17.73,17.73,0,0,0,0-17.68L823.1-318.448a17.727,17.727,0,0,0-15.311-8.84Z" transform="translate(-661.648 330.719)" fill="#fff"/>
    </g>
  </g>
</svg>
