<svg xmlns="http://www.w3.org/2000/svg" width="37.332" height="32.453" viewBox="0 0 37.332 32.453">
  <g id="Group_2207" data-name="Group 2207" transform="translate(-15.186 -17.761)">
    <path id="Path_1134" data-name="Path 1134" d="M46.2,30.4H42.738V29.244a3.941,3.941,0,0,0-7.835,0V30.4H31.447L29.58,46.3H48.016ZM36,29.244a2.881,2.881,0,1,1,5.761,0V30.4H36Z" transform="translate(4.502 3.917)" fill="#fff"/>
    <path id="Path_1135" data-name="Path 1135" d="M36.178,30.365V29.282c0-1.728,2.3-3.215,4.044-3.779l.818-2.915H34.127V21.493a6.406,6.406,0,0,0-6.683-6.072,6.406,6.406,0,0,0-6.683,6.072v1.095H16.153L13.18,47.867H30.463l2.1-17.5ZM21.856,22.588V21.493a5.323,5.323,0,0,1,5.554-5.047,5.323,5.323,0,0,1,5.554,5.047v1.095Z" transform="translate(2.006 2.346)" fill="#fff"/>
  </g>
</svg>
